<svg width="72" height="67" viewBox="0 0 72 67" fill="none" xmlns="http://www.w3.org/2000/svg">
<path d="M29.0965 18.1968C28.9831 17.6933 28.7274 17.2331 28.3599 16.8709C27.9923 16.5087 27.5284 16.2598 27.0233 16.1538C26.0073 15.9601 24.9569 16.0661 24.0001 16.4589C22.8984 16.8203 21.8998 17.4415 21.0887 18.27C20.6866 18.6859 20.3709 19.1773 20.1597 19.7158C19.9486 20.2544 19.8461 20.8294 19.8584 21.4077C19.9161 22.4879 20.4548 23.5725 20.1543 24.6142C19.852 25.3855 19.3006 26.0336 18.5877 26.4556C17.8781 26.8733 17.2522 27.4191 16.7417 28.0652C16.4956 28.3951 16.3697 28.7992 16.385 29.2105C16.4004 29.6218 16.556 30.0155 16.826 30.3262C17.3674 30.8172 18.3404 30.8758 18.5666 31.5684C18.6238 32.0199 18.5434 32.4781 18.3358 32.883C18.2121 33.3477 18.1876 33.8332 18.2638 34.308C18.34 34.7827 18.5153 35.2361 18.7782 35.6387C19.3116 36.4418 20.0375 37.0985 20.8899 37.5488C21.6025 37.9994 22.4078 38.2829 23.2455 38.3781C24.0832 38.4733 24.9315 38.3777 25.727 38.0985C26.4918 37.7577 27.1505 37.2168 27.6335 36.5328C28.4135 35.3776 28.8508 34.0253 28.8949 32.632C28.9361 31.2464 28.8465 29.86 28.6274 28.4912" fill="#263238"/>
<path d="M29.6322 34.6469C28.992 34.8235 28.3193 34.8479 27.668 34.7182C27.0167 34.5886 26.4047 34.3084 25.8809 33.9002C25.3571 33.4919 24.936 32.9668 24.6512 32.3669C24.3665 31.7669 24.2259 31.1087 24.2408 30.4447C24.2692 29.2107 24.8262 27.9529 24.4433 26.7802C24.1804 25.974 23.5043 25.3465 23.278 24.5293C22.94 23.31 23.6774 22.0778 24.3773 21.0261C24.7959 20.3289 25.3158 19.6978 25.9201 19.1536C26.2244 18.8833 26.5845 18.6833 26.9747 18.5679C27.365 18.4525 27.776 18.4244 28.1783 18.4857" fill="#263238"/>
<path d="M41.0133 18.592C41.0604 19.5353 41.4799 20.4212 42.1796 21.0555C42.8777 21.6836 43.3791 22.5004 43.6234 23.4072C43.8606 25.0461 42.2565 26.5678 42.5872 28.1893C42.7649 29.0587 43.4768 29.7577 43.6032 30.6353C43.6269 31.0647 43.5593 31.4942 43.4046 31.8955C43.25 32.2968 43.012 32.6607 42.7063 32.9632C42.142 33.61 41.454 34.1486 40.9547 34.8476C40.9547 34.8476 39.9158 36.5525 36.7158 35.4614" fill="#263238"/>
<path d="M26.6935 20.0201C26.7422 19.5996 26.9151 19.2031 27.19 18.8812C27.4649 18.5593 27.8294 18.3265 28.2371 18.2126C29.0548 17.9995 29.847 17.6985 30.5998 17.3148C31.173 16.8336 31.6969 16.2965 32.1636 15.7116C32.8121 15.0541 33.6238 14.5811 34.5156 14.341C35.4073 14.1009 36.3468 14.1025 37.2377 14.3455C38.1286 14.5886 38.9388 15.0643 39.5851 15.7239C40.2314 16.3836 40.6905 17.2033 40.9153 18.099C41.0988 18.6936 41.1164 19.327 40.9661 19.9309C40.8158 20.5348 40.5033 21.0861 40.0624 21.5252C38.963 22.4533 37.3296 22.2471 35.9179 21.9586C34.5061 21.67 32.9103 21.3851 31.733 22.2132C31.0731 22.7816 30.544 23.486 30.182 24.2782C29.8153 25.0739 29.1771 25.7131 28.3819 26.0811C27.5574 26.3642 26.4461 25.8759 26.4141 25.0083" fill="#263238"/>
<path d="M30.0323 20.1856C29.6801 20.2236 29.355 20.3924 29.1212 20.6585C28.8875 20.9247 28.7621 21.2689 28.7699 21.623L29.6136 40.7195C29.6484 42.975 32.9455 44.242 35.3604 44.1861C37.7991 44.1293 37.877 42.9337 37.9082 40.7882C37.9585 37.2034 37.9549 35.8577 37.9558 35.8778C37.9558 35.8778 41.0358 35.3593 41.6652 31.3375C41.9212 28.6917 41.9313 26.0278 41.6954 23.3801C41.5378 20.9689 39.9328 18.0135 37.5307 18.2728L30.0323 20.1856Z" fill="#F6C3AA"/>
<path d="M40.9868 26.0287C40.9884 26.1632 40.9373 26.2929 40.8446 26.3903C40.7518 26.4876 40.6247 26.5449 40.4903 26.55C40.4247 26.5553 40.3588 26.5475 40.2963 26.527C40.2338 26.5064 40.176 26.4736 40.1264 26.4304C40.0768 26.3872 40.0364 26.3345 40.0074 26.2754C39.9785 26.2163 39.9617 26.1521 39.958 26.0864C39.9565 25.9521 40.0074 25.8225 40.1 25.7251C40.1925 25.6278 40.3194 25.5704 40.4536 25.5651C40.5193 25.5598 40.5853 25.5676 40.6478 25.5881C40.7104 25.6086 40.7682 25.6414 40.8179 25.6846C40.8675 25.7278 40.9081 25.7805 40.9371 25.8396C40.9661 25.8987 40.983 25.963 40.9868 26.0287Z" fill="#263238"/>
<path d="M41.12 24.6627C41.0559 24.7305 40.6619 24.4419 40.1123 24.4446C39.5626 24.4474 39.1513 24.7259 39.0908 24.6581C39.0615 24.6279 39.1256 24.506 39.3033 24.3768C39.5429 24.2098 39.8284 24.1212 40.1205 24.1231C40.4092 24.1212 40.6909 24.2114 40.9249 24.3805C41.0934 24.5115 41.1512 24.6324 41.12 24.6627Z" fill="#263238"/>
<path d="M35.8336 26.1333C35.8351 26.2677 35.7842 26.3973 35.6916 26.4946C35.5991 26.592 35.4722 26.6494 35.338 26.6546C35.2724 26.6598 35.2065 26.6519 35.1441 26.6314C35.0816 26.6108 35.0239 26.5779 34.9744 26.5348C34.9248 26.4916 34.8843 26.4389 34.8554 26.3799C34.8264 26.3209 34.8095 26.2567 34.8057 26.1911C34.8042 26.0567 34.8551 25.9271 34.9476 25.8298C35.0402 25.7324 35.1671 25.675 35.3013 25.6698C35.3669 25.6645 35.4328 25.6725 35.4952 25.693C35.5577 25.7136 35.6153 25.7465 35.6649 25.7896C35.7145 25.8328 35.7549 25.8855 35.7839 25.9445C35.8129 26.0035 35.8298 26.0677 35.8336 26.1333Z" fill="#263238"/>
<path d="M35.5292 24.9284C35.4651 24.9953 35.0712 24.7076 34.5215 24.7104C33.9718 24.7131 33.5605 24.9916 33.501 24.9238C33.4716 24.8936 33.5358 24.7718 33.7135 24.6426C33.9531 24.4755 34.2386 24.3869 34.5307 24.3888C34.8191 24.3869 35.1005 24.4771 35.3341 24.6462C35.4972 24.7773 35.5595 24.8982 35.5292 24.9284Z" fill="#263238"/>
<path d="M37.5522 29.3201C37.8442 29.2276 38.1468 29.1722 38.4527 29.1552C38.5938 29.1396 38.7276 29.1121 38.7523 29.015C38.765 28.8691 38.7331 28.7227 38.6607 28.5954C38.5263 28.2528 38.3858 27.8937 38.2393 27.5181C37.8483 26.6051 37.5315 25.6621 37.292 24.6982C37.7548 25.5781 38.1466 26.4934 38.4637 27.4356L38.8677 28.5194C38.9571 28.6902 38.9834 28.8872 38.9419 29.0755C38.9216 29.1256 38.89 29.1704 38.8497 29.2064C38.8094 29.2425 38.7613 29.2688 38.7092 29.2834C38.6307 29.305 38.5497 29.3164 38.4683 29.3173C38.1643 29.3569 37.8564 29.3578 37.5522 29.3201Z" fill="#263238"/>
<path d="M37.9531 35.8826C36.06 35.9156 34.1948 35.4225 32.5654 34.458C32.5654 34.458 33.9295 37.2192 37.9531 36.8335V35.8826Z" fill="#E08760"/>
<path d="M35.7708 23.5877C35.7158 23.7388 35.1616 23.6683 34.5111 23.748C33.8607 23.8277 33.3339 24.0063 33.2469 23.8717C33.2084 23.8066 33.2991 23.6646 33.5117 23.518C33.7948 23.3381 34.1152 23.2251 34.4486 23.1876C34.782 23.1502 35.1195 23.1892 35.4355 23.3018C35.6737 23.398 35.7937 23.5162 35.7708 23.5877Z" fill="#263238"/>
<path d="M41.0308 23.4275C40.92 23.5539 40.4867 23.4275 39.9654 23.4183C39.445 23.3972 39.0035 23.5099 38.9018 23.3734C38.8569 23.3093 38.9265 23.1829 39.1189 23.0638C39.3824 22.9148 39.6822 22.8424 39.9846 22.8549C40.286 22.857 40.5807 22.944 40.8348 23.1059C41.018 23.2369 41.0785 23.3615 41.0308 23.4275Z" fill="#263238"/>
<path d="M27.2207 33.4191C27.7761 33.5304 28.35 33.5081 28.895 33.354C29.4401 33.1998 29.9407 32.9183 30.3555 32.5327C30.7704 32.147 31.0876 31.6682 31.281 31.1358C31.4744 30.6034 31.5384 30.0327 31.4678 29.4707C31.3423 28.4831 30.811 27.479 31.1527 26.5446C31.6052 25.3087 33.3376 24.9286 33.7966 23.6955C34.0641 22.9791 33.8241 22.1381 34.1273 21.4381C34.3031 21.1243 34.5403 20.849 34.8247 20.6286C35.1091 20.4083 35.4349 20.2474 35.7827 20.1556C36.4795 19.975 37.1438 19.6866 37.7515 19.3008C38.0501 19.0993 38.2691 18.7999 38.3706 18.4542C38.4721 18.1085 38.4498 17.7382 38.3076 17.4072C35.305 17.7673 32.356 18.4839 29.5229 19.5418C28.8425 19.7265 28.2366 20.1188 27.7896 20.664C27.447 21.3268 27.3223 22.0809 27.4332 22.8187L27.938 33.6482" fill="#263238"/>
<path d="M25.0954 20.3546C25.0578 20.4017 25.0346 20.4587 25.0285 20.5186C25.0184 20.6055 25.027 20.6935 25.0537 20.7768C25.0804 20.8601 25.1246 20.9367 25.1834 21.0014C25.2715 21.1088 25.3809 21.1967 25.5047 21.2598C25.6284 21.3229 25.7639 21.3596 25.9025 21.3679C26.2611 21.3463 26.6098 21.2419 26.9213 21.0628C27.2822 20.8632 27.6824 20.745 28.0939 20.7165C28.5703 20.704 29.0466 20.7473 29.5129 20.8457C30.0412 20.9597 30.5781 21.029 31.118 21.0527C31.7253 21.0772 32.3178 20.8613 32.767 20.4518C33.1711 20.0244 33.4926 19.5258 33.7152 18.9814C33.9207 18.4954 34.1778 18.0328 34.482 17.6017C34.7444 17.25 35.1037 16.9826 35.5159 16.8322C35.9281 16.6819 36.3753 16.6551 36.8025 16.7552C37.384 16.9088 37.8846 17.2792 38.2014 17.7904C38.3116 17.9828 38.4101 18.1817 38.4964 18.3859C38.4965 18.3272 38.4863 18.2689 38.4662 18.2137C38.4195 18.0519 38.3543 17.8961 38.2719 17.7492C38.1198 17.4746 37.9149 17.2329 37.669 17.0377C37.4231 16.8426 37.1411 16.698 36.8391 16.6123C36.4146 16.5 35.9671 16.5089 35.5474 16.638C35.0633 16.7848 34.6376 17.0804 34.3308 17.4826C34.013 17.9218 33.7445 18.3946 33.5301 18.8925C33.3156 19.4122 33.0086 19.8887 32.6241 20.2988C32.2142 20.6723 31.6739 20.8697 31.1198 20.8484C30.5914 20.8276 30.0657 20.7635 29.5477 20.657C29.0654 20.5608 28.5733 20.5233 28.082 20.5452C27.6502 20.5822 27.2319 20.7143 26.8571 20.9318C26.568 21.1083 26.2431 21.2178 25.9062 21.2524C25.7816 21.2489 25.659 21.2205 25.5456 21.1689C25.4321 21.1173 25.3302 21.0436 25.2457 20.952C25.1896 20.8962 25.1453 20.8298 25.1154 20.7566C25.0855 20.6834 25.0706 20.605 25.0716 20.526C25.0753 20.4133 25.1073 20.3583 25.0954 20.3546Z" fill="#455A64"/>
<path d="M24.6416 20.7375C25.157 20.0564 25.8046 19.4862 26.5455 19.0612C27.2865 18.6362 28.1056 18.3651 28.9538 18.264C28.7008 18.2151 28.4405 18.2182 28.1888 18.2732C26.9472 18.4592 25.8211 19.1058 25.0346 20.0844C24.8607 20.2732 24.727 20.4954 24.6416 20.7375Z" fill="#B61D2D"/>
<path d="M29.1545 18.0563C29.1481 18.0563 29.1674 18.1003 29.2113 18.1745C29.2828 18.2791 29.3703 18.3719 29.4706 18.4493C29.6614 18.5848 29.8774 18.6808 30.1058 18.7316C30.3342 18.7824 30.5705 18.787 30.8008 18.7452C31.4742 18.5877 32.0823 18.2254 32.5414 17.7082C33.0631 17.0877 33.6644 16.5388 34.3297 16.0757C35.0337 15.6882 35.8587 15.583 36.6374 15.7816C37.2728 15.9469 37.8378 16.3132 38.2479 16.826C38.5279 17.1713 38.7363 17.569 38.8608 17.9959C38.9524 18.2991 38.9652 18.4768 38.9826 18.4741C39 18.4713 38.9918 18.4292 38.9881 18.344C38.9822 18.2206 38.9654 18.098 38.9378 17.9775C38.8124 17.4145 38.5365 16.8961 38.1396 16.4776C37.7427 16.0591 37.2397 15.7562 36.6841 15.6011C35.8578 15.3784 34.9772 15.4851 34.228 15.8989C33.5455 16.3702 32.9325 16.9348 32.4068 17.5763C31.978 18.0747 31.4097 18.4331 30.7751 18.6051C30.3428 18.6956 29.8923 18.6176 29.5155 18.387C29.3846 18.2889 29.2637 18.1781 29.1545 18.0563Z" fill="#455A64"/>
<path d="M29.3387 35.1439C29.281 35.1711 29.219 35.1878 29.1555 35.1934C28.981 35.2256 28.8042 35.2434 28.6269 35.2465C27.968 35.2579 27.3161 35.1109 26.7259 34.8178C25.8394 34.3817 25.1255 33.6598 24.6995 32.7684C24.17 31.6793 24.0481 30.4365 24.3559 29.2652C24.5258 28.6896 24.6441 28.1 24.7095 27.5035C24.7331 26.955 24.5945 26.4117 24.311 25.9415C24.0399 25.4971 23.8307 25.0179 23.689 24.5169C23.5823 24.0701 23.5689 23.606 23.6496 23.1538C23.7588 22.5012 24.0464 21.8915 24.4805 21.3921C24.5962 21.257 24.7254 21.1342 24.8662 21.0256C24.9642 20.9532 25.0173 20.9184 25.0219 20.9258C25.0265 20.9331 24.8314 21.0962 24.552 21.4507C24.1625 21.954 23.91 22.5496 23.8191 23.1794C23.7537 23.6094 23.7758 24.0481 23.8841 24.4693C24.0305 24.9512 24.2403 25.4114 24.508 25.838C24.6476 26.0861 24.7612 26.348 24.847 26.6194C24.9277 26.9102 24.9608 27.2122 24.945 27.5136C24.8825 28.1251 24.7638 28.7295 24.5904 29.3192C24.2949 30.438 24.4042 31.6253 24.8992 32.6713C25.2331 33.3875 25.7579 33.9979 26.416 34.4354C27.0741 34.8729 27.84 35.1205 28.6296 35.1512C29.084 35.1677 29.335 35.1228 29.3387 35.1439Z" fill="#455A64"/>
<path d="M22.2188 17.341C22.4073 17.1574 22.6461 17.0341 22.9049 16.9864C23.5224 16.811 24.1822 16.8616 24.7657 17.1293C25.3491 17.3971 25.8178 17.8642 26.0875 18.4467C26.2204 18.6742 26.2825 18.936 26.2662 19.1989C26.2277 19.2071 26.1663 18.924 25.9382 18.5246C25.6509 18.006 25.2053 17.5929 24.6665 17.3457C24.1277 17.0985 23.5239 17.03 22.9434 17.1504C22.4954 17.2356 22.238 17.3758 22.2188 17.341Z" fill="#455A64"/>
<path d="M25.1917 19.878C25.1924 19.7908 25.1979 19.7036 25.2082 19.6169C25.2155 19.3697 25.1543 19.1253 25.0314 18.9106C24.8387 18.5721 24.5485 18.2995 24.1987 18.1282C23.9712 18.015 23.7217 17.953 23.4677 17.9465C23.2136 17.94 22.9613 17.9892 22.7283 18.0907C22.1583 18.3465 21.6939 18.7911 21.4137 19.3494C21.0941 19.995 20.9528 20.7142 21.0042 21.4327C21.0599 22.2361 21.1859 23.0331 21.3807 23.8146C21.5976 24.6704 21.7014 25.551 21.6894 26.4338C21.6074 27.3167 21.3773 28.1796 21.0087 28.9861C20.6763 29.7223 20.3845 30.4761 20.1348 31.2443C19.9187 31.9343 19.8562 32.6631 19.9516 33.3798C20.0461 34.0041 20.2342 34.6107 20.5094 35.179C20.9244 36.0028 21.4181 36.7845 21.9835 37.5133L22.437 38.1179C22.4948 38.185 22.5443 38.2588 22.5845 38.3378C22.5159 38.2823 22.4544 38.2186 22.4012 38.1482C22.2858 38.019 22.1191 37.8257 21.912 37.571C21.3108 36.8566 20.7886 36.0792 20.3546 35.2523C20.0606 34.6718 19.8576 34.0495 19.7527 33.4073C19.6442 32.6629 19.7012 31.9037 19.9195 31.1838C20.1653 30.4044 20.4556 29.6398 20.7889 28.8936C21.1437 28.1111 21.3663 27.2753 21.4476 26.42C21.5199 24.6556 20.8063 23.024 20.7806 21.4382C20.7344 20.682 20.8927 19.9272 21.2387 19.2532C21.5461 18.6605 22.0505 18.1933 22.6651 17.9322C22.92 17.827 23.195 17.7791 23.4705 17.7921C23.746 17.8051 24.0152 17.8786 24.2591 18.0073C24.626 18.1985 24.9246 18.4988 25.1139 18.8666C25.2349 19.0973 25.2847 19.3588 25.2568 19.6179C25.2489 19.7075 25.227 19.7953 25.1917 19.878Z" fill="#455A64"/>
<path d="M37.3419 30.6684C37.2597 30.9094 37.1434 31.1374 36.9965 31.3454C36.9222 31.4493 36.8265 31.5361 36.7159 31.6001C36.6053 31.6641 36.4824 31.7037 36.3552 31.7164C36.2192 31.717 36.0852 31.6833 35.9658 31.6182C35.8463 31.5532 35.7452 31.4591 35.6718 31.3445C35.528 31.1124 35.4616 30.8407 35.4822 30.5685C35.4932 30.3239 35.605 30.0317 35.8486 30.0033C35.9509 29.9998 36.0523 30.0222 36.1436 30.0683L37.4262 30.5869" fill="#E08760"/>
<path d="M36.8333 31.7228C36.6028 31.7376 36.3716 31.709 36.1517 31.6385C35.9281 31.5512 35.7445 31.3845 35.6359 31.1704C35.5746 31.0399 35.5415 30.898 35.5386 30.7539C35.5358 30.6098 35.5633 30.4667 35.6194 30.334C35.6485 30.2659 35.6857 30.2016 35.7303 30.1425C35.7807 30.0894 35.7715 30.0921 35.8265 30.0994C35.8814 30.1068 35.963 30.1535 36.0317 30.1801L36.2415 30.2662C36.5163 30.377 36.7628 30.4732 36.9744 30.552C37.1941 30.6579 37.429 30.7287 37.6706 30.7618C37.4798 30.6098 37.2662 30.4889 37.0376 30.4036C36.836 30.3065 36.5951 30.1947 36.3258 30.0729L36.1187 29.9813C36.0427 29.9449 35.9647 29.9127 35.8851 29.8851C35.823 29.8662 35.7564 29.8681 35.6955 29.8906C35.6396 29.9146 35.5909 29.9528 35.5544 30.0014C35.4962 30.0758 35.4479 30.1574 35.4106 30.2442C35.3411 30.4071 35.3085 30.5833 35.3153 30.7603C35.3222 30.9372 35.3681 31.1104 35.45 31.2675C35.5888 31.5209 35.8218 31.7095 36.0985 31.7924C36.2764 31.8493 36.4664 31.8568 36.6482 31.8144C36.7792 31.7778 36.8379 31.7347 36.8333 31.7228Z" fill="#263238"/>
<path d="M45.9316 27.5713C47.0755 27.2029 48.172 26.701 49.1985 26.0762C48.0548 26.4448 46.9583 26.9466 45.9316 27.5713Z" fill="#455A64"/>
<path d="M51.2347 35.2746C52.0837 35.5146 52.8101 36.0675 53.2676 36.8219C53.2804 36.8375 53.2932 36.8503 53.3051 36.8668C53.8301 37.5484 54.3229 35.6016 54.4118 34.877C54.4293 34.7647 54.4719 34.6578 54.5363 34.5641C54.6007 34.4705 54.6853 34.3925 54.7839 34.3359C54.8825 34.2794 54.9925 34.2457 55.1059 34.2374C55.2192 34.2291 55.333 34.2463 55.4388 34.2879L57.8738 35.4267L58.5847 35.4505C58.7552 35.5102 58.8972 35.6314 58.9829 35.7903C59.0687 35.9493 59.092 36.1346 59.0483 36.3098L57.8839 40.1575L57.8592 41.2074L52.9827 41.8679L52.9075 39.2395C52.8352 38.9354 52.7381 38.5772 52.608 38.1677C52.4902 37.797 52.3086 37.4497 52.0711 37.1416C51.8128 36.7917 51.519 36.4693 51.1944 36.1797C51.1687 36.1632 51.1394 36.1394 51.1147 36.1257C51.0605 36.0956 51.0131 36.0548 50.9754 36.0056C50.9158 35.9492 50.8738 35.8766 50.8545 35.7968C50.8353 35.7169 50.8397 35.6332 50.8672 35.5558C50.8946 35.4783 50.944 35.4105 51.0092 35.3606C51.0745 35.3107 51.1528 35.2808 51.2347 35.2746Z" fill="#F6C3AA"/>
<path d="M51.3281 23.4271C51.3281 23.4271 54.1745 22.8774 58.2631 19.1681C62.3518 15.4587 64.3654 10.4246 64.8528 10.4649C65.3401 10.5053 67.4939 9.57631 71.2903 18.492C75.0867 27.4076 73.435 29.4057 72.6306 29.3663C71.8263 29.3269 66.401 27.6486 62.9775 27.9399C60.2923 28.2959 57.6549 28.9485 55.1135 29.8857L51.3281 23.4271Z" fill="#455A64"/>
<path d="M45.1836 28.0542L46.0997 29.9167L46.5093 30.7503C46.7794 31.3012 47.2505 31.7274 47.8256 31.9412C48.4007 32.1549 49.0359 32.1399 49.6002 31.8992L55.7217 29.9588L52.4237 21.799L46.2756 24.8551C45.7075 25.1354 45.2735 25.6295 45.0688 26.2291C44.8642 26.8287 44.9054 27.485 45.1836 28.0542Z" fill="#263238"/>
<path d="M48.5977 31.0913L50.4226 34.9317L51.3964 34.6907L57.5591 40.0042L59.4198 36.6027C59.4198 36.6027 55.737 34.8914 55.0856 33.5419C54.4342 32.1925 55.2395 31.914 55.2395 31.914L53.541 29.8701L48.5977 31.0913Z" fill="#263238"/>
<path d="M70.9599 18.6415C72.9754 23.4695 73.7531 27.7432 72.6923 28.1866C71.6314 28.63 69.1359 25.0718 67.1177 20.2466C65.0995 15.4214 64.3245 11.1449 65.3853 10.7015C66.4462 10.2581 68.9417 13.8127 70.9599 18.6415Z" fill="#263238"/>
<path d="M44.5891 30.6911L46.2464 30.2221L45.2845 28.2598L44.0303 28.9927L44.5891 30.6911Z" fill="#455A64"/>
<g opacity="0.3">
<path d="M54.1222 30.5681L49.6268 33.2588L49.1064 32.1594L54.1222 30.5681Z" fill="black"/>
</g>
<path d="M46.4023 28.736C47.6606 28.3625 48.875 27.8548 50.0247 27.2217C48.7664 27.595 47.5519 28.1027 46.4023 28.736Z" fill="#455A64"/>
<path d="M47.0081 29.9632C47.0154 29.9916 47.2124 29.9522 47.5266 29.8643C47.6833 29.8203 47.8692 29.7653 48.0763 29.7003C48.2833 29.6352 48.494 29.5326 48.7221 29.4365C49.2849 29.2292 49.8185 28.9503 50.3098 28.6064C49.7323 28.759 49.1725 28.9721 48.6397 29.2422C48.4134 29.3338 48.2027 29.4429 48.0057 29.5171C47.8088 29.5913 47.6292 29.66 47.4808 29.7204C47.1821 29.845 46.9998 29.9348 47.0081 29.9632Z" fill="#455A64"/>
<path d="M66.5986 17.456C66.5986 17.456 69.1006 16.0012 70.3547 19.3606C71.6089 22.72 69.0034 23.1927 69.0034 23.1927C67.9358 21.4032 67.1262 19.4719 66.5986 17.456Z" fill="#FAFAFA"/>
<path d="M64.0967 13.4248C64.1045 13.6404 64.1308 13.855 64.1755 14.0661C64.2414 14.4738 64.3349 15.0665 64.4723 15.7939L64.7792 16.9656L64.9514 17.6179L65.043 17.9596C65.076 18.0741 65.1209 18.1868 65.1603 18.3022L65.6752 19.7506L65.8107 20.1308C65.8547 20.259 65.9188 20.38 65.9729 20.5073C66.0865 20.7583 66.201 21.0127 66.3164 21.2704L66.6618 22.0345C66.7204 22.1582 66.7699 22.2873 66.8359 22.4009L67.031 22.7545L67.7767 24.0994C67.8381 24.2057 67.8922 24.3138 67.9599 24.4146L68.156 24.7086L68.5316 25.2711L69.2086 26.2789C69.6667 26.8615 70.0441 27.3223 70.308 27.642C70.4359 27.8143 70.5784 27.9752 70.7339 28.123C70.6291 27.9359 70.5083 27.7581 70.373 27.5916L69.3286 26.1882L68.6782 25.1749L68.3117 24.6115L68.1212 24.3174C68.0598 24.2167 68.0058 24.1086 67.9471 24.0023L67.2142 22.6602L67.0218 22.3084C66.9559 22.1911 66.9082 22.0629 66.8496 21.9419L66.5079 21.1834L66.1653 20.4258C66.1112 20.3003 66.0471 20.1803 66.0022 20.0529L65.8657 19.6764L65.3426 18.2418C65.3023 18.1272 65.2565 18.0155 65.2217 17.9019L65.1301 17.5638L64.9468 16.918L64.617 15.7591L64.2561 14.0478C64.2209 13.8359 64.1675 13.6275 64.0967 13.4248Z" fill="#263238"/>
<path d="M56.2897 33.5543C56.4172 33.6124 56.5181 33.7165 56.5722 33.8457C56.6264 33.9749 56.6299 34.1198 56.582 34.2515C56.3987 34.7819 56.0918 35.6137 55.8656 36.1176C55.8032 36.2833 55.7099 36.4356 55.5907 36.5665C55.5317 36.6301 55.4561 36.676 55.3725 36.6991C55.2889 36.7223 55.2004 36.7217 55.1171 36.6975C55.0332 36.6561 54.9624 36.5924 54.9124 36.5134C54.8625 36.4343 54.8354 36.343 54.834 36.2495C54.8326 36.06 54.8671 35.8719 54.9357 35.6953C55.0951 35.1996 55.3709 34.4576 55.6063 33.8548C55.6303 33.7889 55.6675 33.7287 55.7155 33.6776C55.7635 33.6266 55.8214 33.5858 55.8857 33.5578C55.9499 33.5298 56.0192 33.5151 56.0893 33.5147C56.1594 33.5142 56.2288 33.528 56.2934 33.5552L56.2897 33.5543Z" fill="#F6C3AA"/>
<path d="M57.028 34.5318C57.1555 34.5899 57.2564 34.694 57.3105 34.8232C57.3647 34.9524 57.3682 35.0973 57.3203 35.2289C57.1371 35.7594 56.8302 36.5912 56.6039 37.0951C56.5414 37.2607 56.4482 37.413 56.329 37.544C56.2699 37.6074 56.1943 37.6532 56.1107 37.6761C56.027 37.6991 55.9387 37.6984 55.8554 37.6741C55.7715 37.6327 55.7007 37.569 55.6508 37.4899C55.6008 37.4109 55.5737 37.3196 55.5723 37.2261C55.5705 37.0366 55.6047 36.8485 55.6731 36.6718C55.8334 36.1762 56.1083 35.4341 56.3437 34.8313C56.3677 34.7655 56.4049 34.7052 56.4529 34.6542C56.5009 34.6031 56.5588 34.5624 56.6231 34.5343C56.6873 34.5063 56.7566 34.4917 56.8267 34.4912C56.8967 34.4908 56.9662 34.5046 57.0308 34.5318H57.028Z" fill="#F6C3AA"/>
<path d="M57.7446 35.1526C57.8584 35.1993 57.9495 35.2883 57.9989 35.4009C58.0483 35.5136 58.0521 35.6409 58.0094 35.7563C57.8399 36.2143 57.566 36.9353 57.3617 37.3723C57.3036 37.5171 57.218 37.6493 57.1097 37.7617C57.0569 37.8238 56.9858 37.8678 56.9066 37.8874C56.8273 37.9069 56.744 37.9011 56.6682 37.8708C56.5925 37.8404 56.5282 37.787 56.4845 37.7181C56.4408 37.6492 56.4198 37.5683 56.4245 37.4868C56.4229 37.3223 56.4541 37.1591 56.5161 37.0068C56.6608 36.578 56.91 35.9358 57.1226 35.4127C57.1462 35.3548 57.181 35.3021 57.2251 35.2577C57.2691 35.2133 57.3215 35.178 57.3792 35.1539C57.4369 35.1298 57.4989 35.1174 57.5614 35.1173C57.624 35.1172 57.6859 35.1295 57.7437 35.1535L57.7446 35.1526Z" fill="#F6C3AA"/>
<path d="M58.6806 35.3608C58.7947 35.4079 58.8862 35.4974 58.9357 35.6105C58.9852 35.7236 58.989 35.8515 58.9463 35.9673C58.7759 36.4253 58.501 37.1527 58.2949 37.5906C58.2365 37.736 58.1507 37.8689 58.0421 37.9818C57.989 38.044 57.9177 38.0879 57.8384 38.1075C57.759 38.127 57.6755 38.1213 57.5996 38.0909C57.5237 38.0606 57.4592 38.0073 57.4151 37.9384C57.3711 37.8695 57.3497 37.7886 57.3541 37.707C57.3525 37.5416 57.3836 37.3775 57.4457 37.2242C57.5913 36.7936 57.8414 36.1478 58.0549 35.6228C58.0787 35.5646 58.1138 35.5117 58.1581 35.4671C58.2024 35.4224 58.2551 35.387 58.3132 35.3629C58.3713 35.3387 58.4335 35.3262 58.4964 35.3262C58.5593 35.3261 58.6216 35.3385 58.6797 35.3626L58.6806 35.3608Z" fill="#F6C3AA"/>
<path d="M55.6348 36.5873C56.0232 35.9995 56.2973 35.3437 56.4428 34.6543C56.0547 35.2423 55.7806 35.898 55.6348 36.5873Z" fill="#E08760"/>
<path d="M56.4434 37.3997C56.8563 36.7144 57.1532 35.9657 57.3219 35.1836C56.9091 35.8689 56.6122 36.6177 56.4434 37.3997Z" fill="#E08760"/>
<path d="M57.2861 37.5071C57.7242 36.9396 58.0048 36.2665 58.0996 35.5558C57.7583 36.1747 57.4855 36.829 57.2861 37.5071Z" fill="#E08760"/>
<path d="M28.3227 44.466C28.2907 44.466 28.2925 44.0675 28.1853 43.4418C28.0443 42.6278 27.7628 41.8444 27.3535 41.1268C26.986 40.3901 26.3951 39.7886 25.6651 39.4081C25.35 39.2842 25.0118 39.2302 24.6738 39.2497C24.7577 39.2021 24.8522 39.1765 24.9487 39.1754C25.2096 39.1508 25.4728 39.1872 25.7173 39.2817C26.5005 39.6418 27.137 40.2589 27.5211 41.0306C27.944 41.7665 28.2156 42.5794 28.32 43.4216C28.3808 43.767 28.3817 44.1203 28.3227 44.466Z" fill="#263238"/>
<path d="M29.6331 38.3399L37.9505 39.6288L39.4319 40.9114C39.4319 40.9114 44.6666 51.105 44.7628 53.1626C44.6619 55.2618 44.2874 57.3388 43.6488 59.3409L44.8461 68.3464C45.023 69.3807 44.3514 70.3738 43.8998 70.3738L29.5314 68.4499C27.6579 68.0835 26.8893 67.1032 27.0047 66.0185L27.2191 64.0113L21.0811 43.4582C20.7147 44.673 21.2854 40.1831 24.0255 39.1763C25.1872 38.7475 27.8695 37.9707 29.6331 38.3399Z" fill="#B61D2D"/>
<path d="M38.666 40.3065C38.666 40.3065 41.2266 42.2798 43.6497 44.5207C46.0728 46.7615 52.536 51.2532 52.536 51.2532L52.9813 41.8639L57.8578 41.2034C57.8578 41.2034 60.2397 52.9114 58.7281 56.1425C57.2165 59.3737 55.4081 59.5111 50.3813 57.8951C48.1812 57.2498 46.0228 56.4703 43.9181 55.5608L38.666 40.3065Z" fill="#B61D2D"/>
<path d="M39.9521 41.7002C39.9971 41.7433 40.0359 41.7923 40.0676 41.8459L40.3662 42.2828C40.6218 42.6658 40.9855 43.2228 41.4188 43.9227C42.5832 45.7309 43.5208 47.6754 44.2103 49.7126C44.8907 51.7699 45.0389 53.966 44.6409 56.0961C44.5105 56.7363 44.3086 57.3598 44.0389 57.9549C43.9473 58.1683 43.8557 58.3213 43.7989 58.4285C43.7737 58.4853 43.7407 58.5384 43.7009 58.5861C43.6853 58.5778 43.798 58.3488 43.9702 57.9256C44.2104 57.3262 44.3905 56.7044 44.508 56.0695C44.8607 53.9618 44.6957 51.8 44.027 49.7703C43.3393 47.7483 42.4256 45.8104 41.3034 43.9932L40.3049 42.3232L40.0373 41.8651C40.0013 41.8144 39.9727 41.7589 39.9521 41.7002Z" fill="#263238"/>
<path d="M25.5899 39.1738C25.5899 39.1738 28.1798 42.5634 28.3209 45.6782C28.462 48.793 23.6744 67.4461 23.6744 67.4461L19.4758 84.4758L14.2539 82.5519C14.2539 82.5519 15.4705 70.4271 15.7014 68.921C16.1833 65.7842 18.2509 59.6682 18.534 56.1339C18.9227 52.0959 19.6727 48.1009 20.7748 44.1968C21.418 42.6001 21.4427 39.0849 25.5899 39.1738Z" fill="#B61D2D"/>
<path d="M28.107 47.3936C28.113 47.4547 28.1102 47.5164 28.0987 47.5768C28.0822 47.7179 28.0621 47.8892 28.0383 48.0962C27.9769 48.546 27.8752 49.1956 27.7314 49.9935C27.4455 51.5912 26.9893 53.7853 26.4488 56.2002C25.9083 58.6151 25.3696 60.7927 24.9638 62.3629C24.7604 63.148 24.5891 63.782 24.4654 64.2181L24.317 64.7192C24.3032 64.779 24.2813 64.8366 24.252 64.8905C24.2522 64.8285 24.2612 64.7668 24.2785 64.7073L24.3921 64.1979L24.831 62.3281L26.2601 56.1562C26.8043 53.7432 27.2816 51.5555 27.6013 49.966C27.7515 49.1928 27.8761 48.5561 27.9677 48.0816L28.0593 47.5685C28.0672 47.5083 28.0833 47.4495 28.107 47.3936Z" fill="#263238"/>
<g opacity="0.3">
<path d="M28.4801 68.1637C29.2072 67.2388 29.6039 66.0972 29.6069 64.9207C30.018 61.2287 30.429 57.5365 30.84 53.8439C31.0965 51.5417 31.3384 49.1277 30.4736 46.9803C30.4279 46.8123 30.3453 46.6567 30.2316 46.5248C30.1179 46.3929 29.9762 46.2881 29.8167 46.2181C29.6536 46.1871 29.4849 46.2044 29.3315 46.2679C29.178 46.3313 29.0464 46.4382 28.9528 46.5754C28.7531 46.8393 28.1924 47.2167 28.11 47.541C27.2717 50.8326 26.9081 54.0738 26.0689 57.3655C25.8472 58.2349 25.5586 58.2019 25.7501 59.0786C26.0249 60.352 27.2223 64.0073 27.2223 64.0073C27.2223 64.0073 27.0519 65.3348 27.0015 66.1144C26.9769 66.5743 27.1106 67.0288 27.3803 67.4022C27.65 67.7756 28.0394 68.0453 28.4838 68.1665" fill="black"/>
</g>
<path d="M27.7103 49.2328C27.6263 49.3151 27.5306 49.3846 27.4263 49.4389C27.1563 49.6105 26.874 49.7618 26.5816 49.8914C26.1428 50.0977 25.6607 50.1951 25.1763 50.1754C24.586 50.1069 24.0237 49.8859 23.5447 49.5342C23.0839 49.1961 22.5996 48.8915 22.0954 48.6226C21.69 48.4107 21.227 48.3352 20.7753 48.4073C20.4711 48.4557 20.1895 48.5972 19.9691 48.8123C19.8188 48.9698 19.7684 49.0871 19.752 49.0788C19.7739 48.9603 19.8296 48.8506 19.9123 48.7628C20.1279 48.5105 20.4222 48.3382 20.7478 48.2736C21.2289 48.1749 21.7292 48.2394 22.1696 48.4568C22.6872 48.7214 23.1823 49.0277 23.65 49.3729C24.1029 49.7073 24.6324 49.9228 25.19 49.9995C25.6487 50.0251 26.1071 49.9455 26.5303 49.7669C27.2623 49.4655 27.6929 49.1998 27.7103 49.2328Z" fill="#FAFAFA"/>
<path d="M43.9164 48.8364C43.9219 48.8364 43.8962 48.8877 43.8413 48.9756C43.7605 49.1044 43.6659 49.2239 43.5591 49.332C43.1583 49.7297 42.6581 50.0126 42.1108 50.151C41.3011 50.3622 40.4523 50.3738 39.6372 50.1849C38.6623 49.9353 37.7035 49.6266 36.7661 49.2606C35.0596 48.634 33.2093 48.5097 31.4343 48.9024C30.7046 49.0821 29.9905 49.3201 29.2988 49.6142C29.2988 49.6087 29.341 49.5794 29.4317 49.5281C29.5224 49.4768 29.6543 49.4016 29.8339 49.321C30.3376 49.0857 30.8636 48.9016 31.4041 48.7713C32.2071 48.5727 33.0333 48.4839 33.8602 48.5075C34.8741 48.5387 35.8765 48.732 36.8293 49.0801C37.7601 49.4437 38.7104 49.7553 39.6757 50.0136C40.4631 50.2046 41.2845 50.2074 42.0732 50.0218C42.6053 49.8995 43.0979 49.6445 43.5051 49.2807C43.7881 49.0141 43.8972 48.8245 43.9164 48.8364Z" fill="#FAFAFA"/>
<path d="M46.972 47.1855C47.0362 47.44 47.0496 47.7046 47.0114 47.9642C46.9562 48.5963 46.7755 49.2109 46.4797 49.7722C46.184 50.3335 45.7792 50.8301 45.2891 51.233C45.0965 51.4114 44.8705 51.5499 44.624 51.6406C44.8066 51.4604 44.9986 51.2901 45.1993 51.1304C46.1033 50.2913 46.6946 49.1695 46.8758 47.9496C46.8943 47.6934 46.9265 47.4383 46.972 47.1855Z" fill="#FAFAFA"/>
<g opacity="0.3">
<path d="M41.6277 44.1923C45.556 48.1362 48.9337 52.5217 50.3812 57.8965C48.1376 57.1636 46.0159 56.4482 44.6096 55.8646C44.8358 54.7057 44.8919 53.52 44.7764 52.3449C44.4649 50.7499 44.4658 49.4133 41.624 44.1914" fill="black"/>
</g>
<path d="M52.4648 51.2764C53.0901 52.0236 53.5181 52.9156 53.7098 53.8708C53.7429 53.3678 53.6457 52.8648 53.4276 52.4103C53.2095 51.9558 52.8779 51.5653 52.4648 51.2764Z" fill="#263238"/>
<path d="M67.4996 52C66.041 52 64.6422 51.4205 63.6108 50.3891C62.5794 49.3576 62 47.9587 62 46.5C62 45.0413 62.5794 43.6424 63.6108 42.6109C64.6422 41.5795 66.041 41 67.4996 41C68.9583 41 70.3572 41.5794 71.3887 42.6109C72.4202 43.6423 72.9998 45.0412 73 46.5C73 47.2223 72.8577 47.9376 72.5813 48.605C72.3049 49.2723 71.8997 49.8786 71.3889 50.3894C70.8782 50.9001 70.2718 51.3052 69.6045 51.5816C68.9371 51.8579 68.2219 52.0001 67.4996 52Z" fill="#A9D59F"/>
<path fill-rule="evenodd" clip-rule="evenodd" d="M70.5136 46.3469C70.4882 45.5832 70.1688 44.8589 69.6221 44.3252C69.0753 43.7915 68.3435 43.4896 67.5795 43.4827C66.8155 43.4757 66.0783 43.7642 65.5219 44.2879C64.9655 44.8116 64.633 45.53 64.5937 46.293C64.5937 46.3358 64.5937 46.3794 64.5937 46.4222C64.5933 46.9576 64.7402 47.4829 65.0184 47.9404L64.4844 49.5172L66.1254 48.9958C66.5751 49.2427 67.0811 49.3687 67.594 49.3615C68.1069 49.3543 68.6092 49.2143 69.0518 48.955C69.4944 48.6957 69.8622 48.326 70.1193 47.8821C70.3763 47.4381 70.5138 46.9351 70.5183 46.4222C70.5152 46.3968 70.5152 46.3715 70.5136 46.3469ZM67.5525 48.8928C67.0656 48.894 66.5891 48.7518 66.1824 48.484L65.226 48.789L65.5367 47.8714C65.2278 47.4513 65.0613 46.9436 65.0612 46.4222C65.0614 46.3428 65.0656 46.2634 65.0739 46.1845C65.1379 45.5675 65.4297 44.9966 65.8924 44.5834C66.355 44.1703 66.9551 43.9445 67.5753 43.9504C68.1956 43.9562 68.7913 44.1932 69.2461 44.6151C69.7008 45.0369 69.9818 45.6132 70.0342 46.2312C70.0397 46.2954 70.0429 46.3588 70.0429 46.4238C70.0391 47.081 69.775 47.71 69.3083 48.1728C68.8416 48.6356 68.2097 48.8945 67.5525 48.8928Z" fill="white"/>
<path fill-rule="evenodd" clip-rule="evenodd" d="M68.912 47.015C68.8383 46.9794 68.4817 46.8042 68.4151 46.7773C68.3486 46.7503 68.3003 46.7416 68.2519 46.813C68.2036 46.8843 68.0633 47.0507 68.0213 47.0942C67.9793 47.1378 67.9366 47.1481 67.8629 47.1125C67.6486 47.0284 67.451 46.9071 67.2789 46.7543C67.1203 46.6096 66.9843 46.4418 66.8756 46.2567C66.8336 46.1846 66.8716 46.1458 66.9072 46.1101C66.9429 46.0744 66.9794 46.0253 67.0166 45.9841L67.0427 45.9493C67.0599 45.9217 67.0752 45.8932 67.0887 45.8637C67.0985 45.8439 67.1031 45.822 67.1021 45.8C67.1012 45.7779 67.0946 45.7565 67.0832 45.7377C67.0649 45.702 66.9199 45.3462 66.8581 45.202C66.7963 45.0578 66.7377 45.0832 66.6949 45.0832C66.6521 45.0832 66.6046 45.076 66.5562 45.076C66.5194 45.077 66.4832 45.0855 66.4498 45.101C66.4164 45.1166 66.3865 45.1388 66.3621 45.1664C66.2802 45.2436 66.2153 45.337 66.1717 45.4407C66.128 45.5444 66.1065 45.6561 66.1085 45.7686C66.1097 45.8518 66.1222 45.9344 66.1458 46.0142C66.2028 46.1943 66.2904 46.3632 66.4049 46.5134C66.7077 46.9857 67.1375 47.363 67.6449 47.6022C68.3842 47.889 68.3842 47.7931 68.5166 47.7812C68.6178 47.7622 68.7139 47.7219 68.7983 47.6629C68.8828 47.6038 68.9536 47.5275 69.0063 47.4389C69.0539 47.3315 69.0688 47.2125 69.049 47.0966C69.0324 47.0689 68.9841 47.0515 68.912 47.015Z" fill="white"/>
<path d="M50 12C49.2121 12 48.4319 11.8448 47.7039 11.5433C46.9759 11.2417 46.3145 10.7998 45.7574 10.2427C45.2002 9.6855 44.7583 9.02405 44.4567 8.29609C44.1552 7.56814 44 6.78793 44 6C44 5.21207 44.1552 4.43186 44.4567 3.7039C44.7583 2.97595 45.2002 2.3145 45.7574 1.75734C46.3145 1.20019 46.9759 0.758253 47.7039 0.456725C48.4319 0.155196 49.2121 0 50 0C51.5913 0 53.1174 0.632125 54.2426 1.75734C55.3679 2.88256 56 4.4087 56 6C56 7.5913 55.3679 9.11744 54.2426 10.2427C53.1174 11.3679 51.5913 12 50 12Z" fill="#A9D59F"/>
<path d="M50.1045 2.98364C50.968 2.98364 51.0699 2.98365 51.4108 3.00197C51.616 3.00445 51.8191 3.04216 52.0114 3.11347C52.1508 3.16726 52.2774 3.24962 52.383 3.35525C52.4887 3.46088 52.571 3.58747 52.6248 3.72684C52.6962 3.91915 52.7339 4.12232 52.7363 4.32744C52.7522 4.66836 52.7554 4.77031 52.7554 5.63378C52.7554 6.49724 52.7554 6.59921 52.7363 6.94014C52.7339 7.14526 52.6962 7.34843 52.6248 7.54074C52.5711 7.68016 52.4888 7.80678 52.3831 7.91242C52.2775 8.01807 52.1509 8.10038 52.0114 8.15408C51.8191 8.22548 51.616 8.26322 51.4108 8.26561C51.0699 8.28154 50.968 8.28471 50.1045 8.28471C49.241 8.28471 49.1391 8.28472 48.7981 8.26561C48.593 8.26328 48.3898 8.22555 48.1975 8.15408C48.0581 8.10042 47.9315 8.01812 47.8258 7.91247C47.7202 7.80682 47.6378 7.68018 47.5842 7.54074C47.5128 7.34843 47.4751 7.14526 47.4727 6.94014C47.4567 6.59921 47.4544 6.49724 47.4544 5.63378C47.4544 4.77031 47.4544 4.66836 47.4727 4.32744C47.4751 4.12232 47.5128 3.91915 47.5842 3.72684C47.638 3.58747 47.7203 3.46088 47.826 3.35525C47.9316 3.24962 48.0582 3.16726 48.1975 3.11347C48.3899 3.0421 48.593 3.00439 48.7981 3.00197C49.1391 2.98604 49.241 2.98364 50.1045 2.98364ZM50.1045 2.40137C49.2283 2.40137 49.1168 2.40136 48.7719 2.42047C48.5037 2.426 48.2384 2.4769 47.9872 2.57102C47.7725 2.65407 47.5774 2.78107 47.4146 2.94389C47.2518 3.10672 47.1248 3.30177 47.0417 3.51654C46.9475 3.76767 46.8966 4.03296 46.8912 4.30114C46.8753 4.64604 46.8721 4.75597 46.8721 5.63378C46.8721 6.51158 46.8721 6.62231 46.8912 6.96722C46.8966 7.23539 46.9475 7.50068 47.0417 7.75181C47.1248 7.96656 47.2518 8.16159 47.4147 8.32441C47.5775 8.48723 47.7725 8.61425 47.9872 8.69733C48.2384 8.79147 48.5037 8.84237 48.7719 8.84788C49.1168 8.86381 49.2267 8.86701 50.1045 8.86701C50.9823 8.86701 51.0922 8.867 51.4379 8.84788C51.7061 8.8424 51.9714 8.7915 52.2225 8.69733C52.4373 8.61429 52.6323 8.48728 52.7952 8.32446C52.958 8.16164 53.085 7.96658 53.168 7.75181C53.2622 7.50066 53.3131 7.23538 53.3186 6.96722C53.3345 6.62231 53.3377 6.51238 53.3377 5.63378C53.3377 4.75517 53.3377 4.64604 53.3186 4.30114C53.3131 4.03297 53.2622 3.7677 53.168 3.51654C53.085 3.30177 52.958 3.10672 52.7952 2.94389C52.6323 2.78107 52.4373 2.65407 52.2225 2.57102C51.9714 2.47687 51.7061 2.42597 51.4379 2.42047C51.093 2.40454 50.9831 2.40137 50.1045 2.40137Z" fill="white"/>
<path d="M50.1053 3.97559C49.777 3.97559 49.4561 4.07293 49.1831 4.25533C48.9101 4.43774 48.6973 4.697 48.5717 5.00033C48.446 5.30366 48.4132 5.63745 48.4772 5.95946C48.5413 6.28148 48.6994 6.57724 48.9315 6.8094C49.1637 7.04156 49.4595 7.19968 49.7815 7.26373C50.1035 7.32779 50.4373 7.29491 50.7406 7.16927C51.0439 7.04363 51.3032 6.83084 51.4856 6.55785C51.668 6.28486 51.7654 5.96392 51.7654 5.63559C51.7654 5.19533 51.5905 4.7731 51.2792 4.46179C50.9678 4.15047 50.5456 3.97559 50.1053 3.97559ZM50.1053 6.71333C49.8922 6.71333 49.6838 6.65012 49.5066 6.5317C49.3293 6.41327 49.1912 6.24495 49.1096 6.04802C49.0281 5.85109 49.0067 5.63441 49.0483 5.42535C49.0899 5.21629 49.1925 5.02426 49.3433 4.87353C49.494 4.72281 49.686 4.62015 49.8951 4.57857C50.1041 4.53698 50.3208 4.55833 50.5178 4.6399C50.7147 4.72147 50.883 4.85961 51.0014 5.03684C51.1199 5.21407 51.1831 5.42244 51.1831 5.63559C51.1831 5.92143 51.0695 6.19556 50.8674 6.39768C50.6653 6.5998 50.3912 6.71333 50.1053 6.71333Z" fill="white"/>
<path d="M52.2192 3.90941C52.2192 3.98613 52.1965 4.06111 52.1538 4.12491C52.1112 4.1887 52.0506 4.23843 51.9797 4.26779C51.9089 4.29715 51.8308 4.30483 51.7556 4.28987C51.6803 4.2749 51.6112 4.23796 51.557 4.18371C51.5027 4.12946 51.4658 4.06033 51.4508 3.98508C51.4358 3.90983 51.4435 3.83184 51.4729 3.76095C51.5022 3.69007 51.552 3.62948 51.6158 3.58685C51.6796 3.54423 51.7546 3.52148 51.8313 3.52148C51.9342 3.52148 52.0328 3.56235 52.1056 3.6351C52.1783 3.70785 52.2192 3.80652 52.2192 3.90941Z" fill="white"/>
<path d="M18.6431 14.2863C17.1465 14.2863 15.7111 13.6917 14.6528 12.6334C13.5946 11.5751 13 10.1398 13 8.64314C13 7.14648 13.5946 5.71113 14.6528 4.65283C15.7111 3.59454 17.1465 3 18.6431 3C20.1398 3 21.5752 3.59454 22.6334 4.65283C23.6917 5.71113 24.2863 7.14648 24.2863 8.64314C24.2863 10.1398 23.6917 11.5751 22.6334 12.6334C21.5752 13.6917 20.1398 14.2863 18.6431 14.2863Z" fill="#A9D59F"/>
<path d="M17.7839 12.0536H19.1576V8.61349H20.1162L20.2186 7.46185H19.1576V6.80546C19.1576 6.5337 19.2125 6.42677 19.4754 6.42677H20.2179V5.23132H19.2667C18.2443 5.23132 17.7817 5.68129 17.7817 6.54335V7.46482H17.0674V8.63056H17.7817L17.7839 12.0536Z" fill="white"/>
<path d="M18.113 41.745C18.2886 42.6579 18.1895 43.6025 17.828 44.459C17.4666 45.3156 16.8592 46.0457 16.0827 46.5569C15.3061 47.0681 14.3954 47.3374 13.4657 47.3307C12.536 47.3241 11.6292 47.0418 10.8601 46.5195C10.091 45.9973 9.49404 45.2586 9.14492 44.3969C8.7958 43.5353 8.71016 42.5894 8.89884 41.6791C9.08753 40.7687 9.54206 39.9348 10.2049 39.2829C10.8677 38.631 11.7091 38.1904 12.6224 38.0169C13.2277 37.9012 13.8499 37.9058 14.4534 38.0305C15.0569 38.1552 15.63 38.3976 16.1398 38.7438C16.6497 39.09 17.0863 39.5332 17.4249 40.0482C17.7635 40.5631 17.9973 41.1397 18.113 41.745Z" fill="#A9D59F"/>
<path d="M16 40.5966C15.8118 40.6964 15.613 40.7623 15.4096 40.7923C15.6242 40.6355 15.7846 40.3873 15.8603 40.0947C15.6594 40.2414 15.4397 40.3447 15.2105 40.4001C15.07 40.2151 14.8875 40.0864 14.6868 40.0308C14.4861 39.9752 14.2764 39.9952 14.085 40.0883C13.8937 40.1814 13.7295 40.3432 13.614 40.5527C13.4984 40.7621 13.4368 41.0096 13.4371 41.2628C13.4362 41.3594 13.4441 41.4558 13.4606 41.5503C13.0525 41.5258 12.6531 41.3957 12.2887 41.1683C11.9243 40.9409 11.6029 40.6215 11.3457 40.2308C11.2139 40.5087 11.1733 40.838 11.2323 41.1514C11.2913 41.4648 11.4454 41.7387 11.663 41.9169C11.5007 41.9115 11.3418 41.8581 11.1998 41.7613V41.7749C11.2 42.0662 11.2818 42.3485 11.4314 42.5743C11.581 42.8001 11.7893 42.9555 12.0212 43.0144C11.9334 43.0429 11.843 43.0569 11.7522 43.056C11.687 43.0576 11.6219 43.0504 11.5579 43.0348C11.6244 43.2852 11.7521 43.5041 11.9237 43.6616C12.0952 43.8191 12.3022 43.9074 12.5162 43.9144C12.1534 44.2634 11.706 44.4527 11.2454 44.4521C11.1634 44.4526 11.0814 44.4466 11 44.4342C11.4687 44.8057 12.0147 45.0022 12.5722 44.9999C12.956 45.0032 13.3365 44.9126 13.6917 44.7334C14.0468 44.5542 14.3695 44.29 14.6409 43.956C14.9124 43.6221 15.1272 43.2252 15.2729 42.7882C15.4186 42.3513 15.4923 41.8831 15.4898 41.4108C15.4898 41.3546 15.4898 41.301 15.4863 41.2474C15.6882 41.0706 15.8622 40.8501 16 40.5966Z" fill="white"/>
<path d="M115.623 66.8313C115.623 66.8954 82.1094 66.9504 40.776 66.9504C-0.571106 66.9504 -34.0781 66.8954 -34.0781 66.8313C-34.0781 66.7671 -0.571106 66.7122 40.776 66.7122C82.1094 66.7076 115.623 66.758 115.623 66.8313Z" fill="#263238"/>
</svg>
