<svg width="72" height="58" viewBox="0 0 72 58" fill="none" xmlns="http://www.w3.org/2000/svg">
<path d="M87.8428 57.7304C87.8428 57.7531 64.1032 57.7733 34.8248 57.7733C5.54643 57.7733 -18.2002 57.754 -18.2002 57.7304C-18.2002 57.7068 5.53418 57.6875 34.8248 57.6875C64.1154 57.6875 87.8428 57.7041 87.8428 57.7304Z" fill="#263238"/>
<path d="M91.2589 57.7297C91.2589 57.7516 66.8858 57.77 36.8269 57.77C6.76803 57.77 -17.6104 57.7516 -17.6104 57.7297C-17.6104 57.7078 6.75753 57.6895 36.8269 57.6895C66.8963 57.6895 91.2589 57.7078 91.2589 57.7297Z" fill="#263238"/>
<path d="M70.154 56.6344H2.55321C2.25546 56.6335 1.96079 56.5739 1.68608 56.459C1.41136 56.3442 1.16196 56.1763 0.952148 55.965C0.742334 55.7538 0.576222 55.5032 0.463285 55.2277C0.350349 54.9522 0.292811 54.6571 0.293962 54.3594V10.9156C0.292811 10.6179 0.350349 10.3228 0.463285 10.0473C0.576222 9.77178 0.742334 9.52124 0.952148 9.30996C1.16196 9.09868 1.41136 8.93082 1.68608 8.81597C1.96079 8.70112 2.25546 8.64154 2.55321 8.64062H70.154C70.4517 8.64154 70.7464 8.70112 71.0211 8.81597C71.2958 8.93082 71.5452 9.09868 71.755 9.30996C71.9648 9.52124 72.131 9.77178 72.2439 10.0473C72.3568 10.3228 72.4144 10.6179 72.4132 10.9156V54.3602C72.4151 54.9614 72.1781 55.5386 71.7544 55.9651C71.3308 56.3915 70.7551 56.6323 70.154 56.6344Z" fill="#455A64"/>
<path d="M73.3338 57.7314H0.683385C-0.0511804 57.729 -0.754751 57.4351 -1.27261 56.9141C-1.79047 56.3931 -2.08021 55.6878 -2.07811 54.9532V53.5322H76.0988V54.9541C76.0999 55.3181 76.0293 55.6788 75.8909 56.0154C75.7525 56.3521 75.549 56.6582 75.2922 56.9161C75.0354 57.1741 74.7302 57.3789 74.3942 57.5188C74.0581 57.6587 73.6978 57.7309 73.3338 57.7314Z" fill="#455A64"/>
<path d="M29.2031 53.082L30.1788 54.6352H43.9084L44.8131 53.082H29.2031Z" fill="#263238"/>
<path d="M71.7937 53.0854C71.7937 53.1117 55.7864 53.1318 36.0456 53.1318C16.3047 53.1318 0.293945 53.1117 0.293945 53.0854C0.293945 53.0592 16.2977 53.0391 36.0456 53.0391C55.7934 53.0391 71.7937 53.0583 71.7937 53.0854Z" fill="#263238"/>
<g opacity="0.814">
<path d="M69.5467 51.8151H2.87871C2.81195 51.8149 2.74589 51.8015 2.6843 51.7757C2.62271 51.75 2.56678 51.7123 2.51974 51.665C2.4727 51.6176 2.43545 51.5614 2.41011 51.4996C2.38478 51.4379 2.37184 51.3717 2.37207 51.305V11.9125C2.37184 11.8457 2.38478 11.7796 2.41011 11.7178C2.43545 11.656 2.4727 11.5999 2.51974 11.5525C2.56678 11.5051 2.62271 11.4675 2.6843 11.4417C2.74589 11.4159 2.81195 11.4026 2.87871 11.4023H69.5476C69.6823 11.403 69.8113 11.4571 69.9063 11.5527C70.0012 11.6484 70.0544 11.7777 70.0542 11.9125V51.3041C70.0542 51.439 70.0009 51.5685 69.9058 51.6642C69.8107 51.7599 69.6816 51.8142 69.5467 51.8151Z" fill="#EBEBEB"/>
<path d="M7.95861 12.9642C7.95861 13.0718 7.92669 13.177 7.86689 13.2665C7.80709 13.356 7.72209 13.4258 7.62264 13.467C7.52319 13.5082 7.41376 13.519 7.30818 13.498C7.20261 13.477 7.10564 13.4251 7.02953 13.349C6.95341 13.2729 6.90158 13.1759 6.88058 13.0704C6.85958 12.9648 6.87035 12.8553 6.91154 12.7559C6.95273 12.6564 7.0225 12.5714 7.112 12.5116C7.2015 12.4518 7.30673 12.4199 7.41437 12.4199C7.48584 12.4199 7.55661 12.434 7.62264 12.4614C7.68867 12.4887 7.74867 12.5288 7.79921 12.5793C7.84975 12.6299 7.88983 12.6899 7.91718 12.7559C7.94453 12.8219 7.95861 12.8927 7.95861 12.9642Z" fill="#263238"/>
<path d="M4.66272 12.9642C4.66272 13.0718 4.6308 13.177 4.571 13.2665C4.5112 13.356 4.4262 13.4258 4.32675 13.467C4.2273 13.5082 4.11787 13.519 4.0123 13.498C3.90672 13.477 3.80974 13.4251 3.73362 13.349C3.65751 13.2729 3.60568 13.1759 3.58468 13.0704C3.56368 12.9648 3.57446 12.8553 3.61565 12.7559C3.65684 12.6564 3.72659 12.5714 3.8161 12.5116C3.9056 12.4518 4.01082 12.4199 4.11847 12.4199C4.18994 12.4199 4.26072 12.434 4.32675 12.4614C4.39278 12.4887 4.45277 12.5288 4.50331 12.5793C4.55385 12.6299 4.59394 12.6899 4.62129 12.7559C4.64865 12.8219 4.66272 12.8927 4.66272 12.9642Z" fill="#263238"/>
<path d="M6.24769 12.9642C6.24769 13.0718 6.21576 13.177 6.15596 13.2665C6.09616 13.356 6.01116 13.4258 5.91171 13.467C5.81226 13.5082 5.70283 13.519 5.59726 13.498C5.49168 13.477 5.3947 13.4251 5.31859 13.349C5.24247 13.2729 5.19064 13.1759 5.16964 13.0704C5.14864 12.9648 5.15942 12.8553 5.20061 12.7559C5.2418 12.6564 5.31156 12.5714 5.40106 12.5116C5.49056 12.4518 5.59578 12.4199 5.70343 12.4199C5.7749 12.4199 5.84568 12.434 5.91171 12.4614C5.97774 12.4887 6.03773 12.5288 6.08827 12.5793C6.13881 12.6299 6.1789 12.6899 6.20626 12.7559C6.23361 12.8219 6.24769 12.8927 6.24769 12.9642Z" fill="#263238"/>
</g>
<path d="M69.5583 46.8466H2.56125C2.43714 46.8545 2.31496 46.8129 2.22147 46.7309C2.12798 46.6489 2.07082 46.5332 2.0625 46.4091V12.089C2.07082 11.9649 2.12798 11.8492 2.22147 11.7672C2.31496 11.6851 2.43714 11.6435 2.56125 11.6515H69.5583C69.6824 11.6435 69.8046 11.6851 69.898 11.7672C69.9915 11.8492 70.0487 11.9649 70.057 12.089V46.4108C70.0487 46.5349 69.9915 46.6507 69.898 46.7327C69.8046 46.8147 69.6824 46.8563 69.5583 46.8483" fill="#E0E0E0"/>
<path d="M61.3919 14.2324H2.0625V46.8463H61.3919V14.2324Z" fill="white"/>
<path d="M6.92897 13.0134C6.92915 13.1072 6.90148 13.199 6.84947 13.2771C6.79747 13.3552 6.72346 13.4162 6.63682 13.4522C6.55017 13.4882 6.45479 13.4977 6.36274 13.4795C6.27068 13.4613 6.1861 13.4162 6.11969 13.3499C6.05328 13.2837 6.00801 13.1992 5.98964 13.1071C5.97127 13.0151 5.98062 12.9197 6.01649 12.833C6.05236 12.7463 6.11314 12.6722 6.19115 12.62C6.26916 12.5679 6.36089 12.54 6.45472 12.54C6.58035 12.54 6.70084 12.5899 6.78976 12.6786C6.87867 12.7674 6.92874 12.8878 6.92897 13.0134Z" fill="#455A64"/>
<path d="M4.05787 13.0134C4.05805 13.1072 4.03038 13.199 3.97837 13.2771C3.92637 13.3552 3.85236 13.4162 3.76572 13.4522C3.67907 13.4882 3.58369 13.4977 3.49164 13.4795C3.39959 13.4613 3.315 13.4162 3.24859 13.3499C3.18218 13.2837 3.13692 13.1992 3.11855 13.1071C3.10018 13.0151 3.10952 12.9197 3.14539 12.833C3.18126 12.7463 3.24204 12.6722 3.32005 12.62C3.39806 12.5679 3.48979 12.54 3.58362 12.54C3.70925 12.54 3.82974 12.5899 3.91866 12.6786C4.00757 12.7674 4.05764 12.8878 4.05787 13.0134Z" fill="#455A64"/>
<path d="M5.43483 13.0134C5.435 13.1072 5.40734 13.199 5.35533 13.2771C5.30332 13.3552 5.22932 13.4162 5.14268 13.4522C5.05603 13.4882 4.96065 13.4977 4.8686 13.4795C4.77654 13.4613 4.69196 13.4162 4.62555 13.3499C4.55913 13.2837 4.51387 13.1992 4.4955 13.1071C4.47713 13.0151 4.48648 12.9197 4.52235 12.833C4.55822 12.7463 4.619 12.6722 4.69701 12.62C4.77502 12.5679 4.86675 12.54 4.96058 12.54C5.08621 12.54 5.2067 12.5899 5.29562 12.6786C5.38453 12.7674 5.4346 12.8878 5.43483 13.0134Z" fill="#455A64"/>
<path d="M69.552 51.583H2.67049C2.54057 51.5878 2.41408 51.5408 2.31878 51.4524C2.22347 51.3639 2.16712 51.2413 2.16211 51.1114V14.7132C2.16712 14.5833 2.22347 14.4606 2.31878 14.3722C2.41408 14.2838 2.54057 14.2368 2.67049 14.2415H69.5537C69.6837 14.2368 69.8101 14.2838 69.9055 14.3722C70.0008 14.4606 70.0571 14.5833 70.0621 14.7132V51.1132C70.056 51.2428 69.999 51.3649 69.9035 51.4528C69.808 51.5408 69.6817 51.5876 69.552 51.583Z" fill="white"/>
<path d="M3.03516 14.2402H42.7549V51.7191H3.03516C2.80309 51.7191 2.58053 51.6269 2.41644 51.4628C2.25234 51.2987 2.16016 51.0762 2.16016 50.8441V15.1152C2.16016 14.8832 2.25234 14.6606 2.41644 14.4965C2.58053 14.3324 2.80309 14.2402 3.03516 14.2402Z" fill="#E6F0F4"/>
<path d="M55.2336 17.4893H46.0225V18.8709H55.2336V17.4893Z" fill="#E6F0F4"/>
<path d="M60.9876 35.8594H46.0225V37.3346H60.9876V35.8594Z" fill="#E6F0F4"/>
<path d="M55.5075 39.9102H46.0225V49.1213H55.5075V39.9102Z" fill="#E6F0F4"/>
<path d="M66.7474 39.9102H57.7227V49.1213H66.7474V39.9102Z" fill="#E6F0F4"/>
<path d="M63.9836 21.1738H46.0225V21.6341H63.9836V21.1738Z" fill="#E6F0F4"/>
<path d="M55.2336 30.5186H46.0225V31.9002H55.2336V30.5186Z" fill="#E6F0F4"/>
<path d="M63.9836 23.9365H46.0225V24.8579H63.9836V23.9365Z" fill="#E6F0F4"/>
<path d="M63.9836 26.2402H46.0225V26.7005H63.9836V26.2402Z" fill="#E6F0F4"/>
<path d="M33.1733 24.7275C33.8344 25.1044 34.4145 25.6084 34.88 26.2104C35.3455 26.8125 35.6874 27.5007 35.8857 28.2354C36.5928 30.7642 38.7531 37.3503 38.7531 37.3503C39.39 38.0821 39.8574 38.9456 40.1216 39.879C40.2529 40.9544 39.9895 43.5584 39.5914 44.044C39.4761 44.1849 39.3282 44.2955 39.1604 44.3661C38.9927 44.4367 38.8102 44.4652 38.6289 44.4492L33.4288 43.9557L31.3848 30.2488L33.1733 24.7275Z" fill="#33A7D2"/>
<path d="M15.9795 24.792C15.9795 24.792 12.2363 25.6145 11.3105 26.7958L14.38 43.8347L14.3319 49.0409H31.9588C31.9588 48.7836 32.1172 31.7544 32.1172 31.7544L33.2249 24.792L26.9109 23.7858L25.6754 22.6553L18.7043 23.0665L17.6447 24.3012L15.9795 24.792Z" fill="#33A7D2"/>
<g opacity="0.3">
<path d="M17.3931 36.7747C17.3389 36.6548 17.261 36.5244 17.1306 36.4982C16.918 36.4544 16.7806 36.7056 16.7045 36.9094C16.1432 38.5153 15.3642 40.0365 14.3893 41.4306L14.3438 43.6058C15.4132 42.788 16.3264 41.7841 17.0396 40.6422C17.391 40.0677 17.6056 39.4202 17.6669 38.7496C17.7282 38.079 17.6345 37.4033 17.3931 36.7747Z" fill="black"/>
</g>
<path d="M11.3342 26.6709C10.6888 27.547 10.1091 28.4698 9.59997 29.4315C9.09072 30.5218 4.87498 39.6778 4.6221 40.6237C4.36923 41.5695 3.71297 44.5471 5.63884 45.2384H9.59909L13.5742 37.1989L13.7772 27.8688L11.3342 26.6709Z" fill="#33A7D2"/>
<path d="M9.85529 39.4299C9.84917 39.436 9.76779 39.352 9.58491 39.2488C9.32383 39.1086 9.04385 39.0069 8.75367 38.9469C8.55436 38.9023 8.35194 38.873 8.14816 38.8594C7.91531 38.8408 7.68099 38.8561 7.45254 38.9049C6.93207 39.0392 6.46613 39.3318 6.11904 39.7423C5.76655 40.1471 5.50861 40.6253 5.36392 41.1423C5.24389 41.5655 5.16391 41.9991 5.12504 42.4373C5.08829 42.8118 5.07342 43.1163 5.0603 43.3271C5.05417 43.4251 5.04892 43.5021 5.04542 43.5704C5.04552 43.5999 5.04199 43.6293 5.03492 43.6579C5.02942 43.6291 5.02795 43.5996 5.03054 43.5704C5.03054 43.5056 5.03054 43.4251 5.03054 43.3271C5.03491 43.1163 5.04105 42.8109 5.06992 42.4329C5.10119 41.9891 5.17622 41.5494 5.29392 41.1204C5.43712 40.5905 5.69893 40.1001 6.05954 39.6863C6.41684 39.2639 6.89811 38.9647 7.43504 38.8314C7.66972 38.7826 7.91042 38.7693 8.14905 38.792C8.35544 38.8073 8.56027 38.8392 8.76154 38.8874C9.05507 38.9521 9.33652 39.0628 9.59542 39.2155C9.66482 39.2585 9.73039 39.3074 9.79142 39.3616C9.81536 39.3818 9.83681 39.4047 9.85529 39.4299Z" fill="#263238"/>
<path d="M7.97656 37.8287C8.01946 37.8144 8.06436 37.807 8.10957 37.8068C8.23174 37.7952 8.35464 37.7938 8.47705 37.8025C8.65905 37.8132 8.83973 37.8401 9.01693 37.8829C9.23393 37.9372 9.4452 38.0122 9.64782 38.107C9.84893 38.2048 10.04 38.322 10.2183 38.457C10.3631 38.5682 10.4978 38.6921 10.6208 38.8271C10.7042 38.9169 10.78 39.0135 10.8474 39.1158C10.8751 39.1517 10.8978 39.1911 10.9148 39.2331C10.9034 39.2418 10.7967 39.0826 10.5814 38.8638C10.4557 38.7368 10.3202 38.6198 10.1763 38.5138C9.8233 38.2537 9.42386 38.0633 8.99944 37.953C8.8272 37.9079 8.65164 37.8765 8.47444 37.8593C8.16819 37.8278 7.97656 37.8436 7.97656 37.8287Z" fill="#263238"/>
<path d="M11.557 37.3877C11.4956 37.39 11.4342 37.385 11.3741 37.3728C11.2568 37.3579 11.0871 37.3404 10.878 37.3247C10.3318 37.2847 9.78296 37.297 9.23909 37.3614C8.69562 37.4281 8.15957 37.5453 7.63785 37.7114C7.43747 37.7761 7.27647 37.833 7.16622 37.875C7.1099 37.8997 7.05127 37.9188 6.99121 37.9319C7.04243 37.8969 7.0973 37.8676 7.15485 37.8444C7.2616 37.7928 7.41736 37.7289 7.62036 37.6572C8.66547 37.2875 9.77948 37.1539 10.8824 37.266C11.0932 37.2879 11.263 37.3141 11.3785 37.3378C11.4393 37.3493 11.499 37.366 11.557 37.3877Z" fill="#263238"/>
<path d="M22.8386 29.5656C22.823 29.5513 22.8092 29.5351 22.7975 29.5174C22.7695 29.4789 22.7328 29.4299 22.689 29.3722L22.2909 28.8201L20.911 26.8732L20.9723 26.8645C20.7588 27.491 20.5234 28.1831 20.2723 28.9102L20.2565 28.9557L20.2171 28.9295L20.1349 28.877C19.816 28.674 19.5261 28.4288 19.273 28.1481C19.0403 27.886 18.8351 27.6007 18.6605 27.2967C18.3674 26.781 18.1399 26.2308 17.9832 25.6587C17.8761 25.275 17.7905 24.8856 17.7269 24.4923C17.7032 24.3593 17.6857 24.2535 17.6709 24.173C17.6639 24.1362 17.656 24.11 17.6516 24.0907C17.6472 24.0715 17.6411 24.0645 17.6429 24.0645C17.7032 24.1983 17.7413 24.341 17.7558 24.4871C17.8126 24.7618 17.8923 25.1635 18.0349 25.6447C18.1969 26.2096 18.4273 26.7526 18.7209 27.2617C18.8964 27.5607 19.1016 27.8412 19.3334 28.0991C19.5833 28.3731 19.868 28.6132 20.1804 28.8131L20.2609 28.8647L20.2049 28.8848L20.9049 26.8417L20.9268 26.7761L20.9661 26.833L22.3233 28.7956C22.4843 29.031 22.612 29.2217 22.7056 29.3591L22.8054 29.5096C22.8182 29.5272 22.8293 29.5459 22.8386 29.5656Z" fill="#263238"/>
<g opacity="0.3">
<path d="M27.4276 36.3252C27.2662 37.9757 27.6222 39.6355 28.4461 41.0747C29.2431 42.5375 30.4725 43.7183 31.9662 44.4557C32.0143 43.0023 31.9443 41.2899 31.9925 39.8366L27.4276 36.3252Z" fill="black"/>
</g>
<path d="M27.2619 34.4122C27.2619 34.4122 26.6223 34.5872 27.1026 35.8997C27.4783 36.6974 27.7999 37.5194 28.0651 38.3602C28.2813 39.4461 28.7075 40.4793 29.3199 41.4017C30.1363 42.1812 31.0203 42.8866 31.9615 43.5096L33.8287 41.7491C33.6598 41.0269 33.5811 40.2866 33.5943 39.545C33.6678 38.6534 33.8567 36.4659 33.8287 36.0922C33.7329 35.6511 33.5897 35.2216 33.4018 34.8112V34.1909L32.4393 31.236C32.4393 31.236 31.9055 30.9962 31.7191 31.8485L31.3989 30.9428C31.3989 30.9428 30.8923 30.8624 30.7593 31.9054C30.6963 32.7335 30.7322 33.5663 30.866 34.386L30.6035 36.2007L30.2036 37.4257L29.8536 37.4782C29.8536 37.4782 29.3286 37.3365 29.046 36.353C28.7634 35.3695 27.9829 34.1987 27.2619 34.4122Z" fill="#F0AD8E"/>
<path d="M33.1996 39.0524C33.1948 39.0302 33.1919 39.0077 33.1908 38.985C33.1908 38.9334 33.1838 38.8695 33.1777 38.789C33.1672 38.614 33.154 38.3629 33.1383 38.054C33.1094 37.417 33.0692 36.5306 33.0228 35.4955L33.0315 35.5174C32.9837 35.4678 32.9231 35.4324 32.8564 35.4151C32.7897 35.3978 32.7195 35.3993 32.6535 35.4194C32.5812 35.4358 32.5129 35.4666 32.4527 35.5101C32.3926 35.5536 32.3418 35.6087 32.3035 35.6723C32.169 35.9666 32.0935 36.2843 32.0813 36.6077C31.9807 37.3558 31.8836 38.0671 31.7961 38.7164C31.7523 39.0401 31.7086 39.349 31.6412 39.6343C31.5815 39.8987 31.5044 40.1589 31.4102 40.413C31.3328 40.6207 31.266 40.8322 31.2098 41.0465C31.1682 41.208 31.1479 41.3742 31.1494 41.5409C31.1558 41.6829 31.1805 41.8235 31.2229 41.9592C31.2043 41.9267 31.189 41.8924 31.1774 41.8568C31.1436 41.7549 31.1239 41.6489 31.1188 41.5418C31.1117 41.3721 31.128 41.2022 31.1669 41.0369C31.2196 40.8199 31.2835 40.6058 31.3586 40.3955C31.449 40.1425 31.523 39.8838 31.5799 39.6212C31.6403 39.3385 31.684 39.0314 31.726 38.7077C31.8135 38.0575 31.9063 37.3462 32.0052 36.5989C32.0288 36.4318 32.0463 36.2681 32.0752 36.1028C32.0988 35.9373 32.155 35.7782 32.2405 35.6347C32.2838 35.5636 32.3407 35.5018 32.408 35.4528C32.4753 35.4039 32.5516 35.3687 32.6325 35.3494C32.7115 35.3267 32.7953 35.3262 32.8745 35.3482C32.9538 35.3701 33.0254 35.4135 33.0814 35.4736L33.0884 35.4841V35.4955C33.1234 36.5306 33.154 37.4205 33.1759 38.0549C33.1829 38.3638 33.1908 38.6114 33.1952 38.7908C33.1952 38.8713 33.1952 38.936 33.1952 38.9868C33.1994 39.0084 33.2009 39.0304 33.1996 39.0524Z" fill="#93471F"/>
<path d="M32.179 35.6896C32.1466 35.637 32.1202 35.5809 32.1003 35.5225C32.0383 35.3663 31.986 35.2064 31.9437 35.0438C31.8801 34.8026 31.835 34.5569 31.8089 34.3088C31.7903 34.1611 31.788 34.0117 31.8019 33.8635C31.8148 33.6998 31.8703 33.5423 31.9629 33.4067C32.0449 33.2856 32.165 33.1953 32.3042 33.1503L32.333 33.1416L32.3479 33.1679C32.6183 33.6447 32.8528 34.0665 33.0181 34.3692L33.2098 34.728C33.236 34.77 33.2565 34.8153 33.271 34.8627C33.2369 34.826 33.2075 34.7851 33.1835 34.7411L32.9727 34.3911C32.7977 34.0936 32.5527 33.678 32.2788 33.2028L32.3225 33.2203C32.1998 33.2608 32.0941 33.3412 32.0224 33.4487C31.9375 33.5743 31.8861 33.7195 31.8728 33.8705C31.8589 34.0136 31.8589 34.1578 31.8728 34.301C31.8947 34.5464 31.9339 34.7899 31.99 35.0298C32.0364 35.2346 32.0863 35.3991 32.1222 35.5111C32.1477 35.5683 32.1668 35.6281 32.179 35.6896Z" fill="#93471F"/>
<path d="M31.7324 35.9308C31.7193 35.8752 31.7134 35.8182 31.7149 35.7611C31.7105 35.6351 31.7035 35.4802 31.6957 35.2973C31.6825 34.9053 31.6711 34.3637 31.6624 33.7652C31.6406 33.2533 31.6485 32.7406 31.686 32.2296C31.7044 32.0745 31.7378 31.9215 31.7858 31.7728C31.7998 31.7171 31.8232 31.6641 31.8549 31.6162C31.8012 31.8199 31.7626 32.0272 31.7394 32.2366C31.7027 32.6242 31.7333 33.1658 31.7394 33.7643C31.7455 34.3628 31.7508 34.9018 31.7508 35.2965C31.7508 35.4793 31.7508 35.6342 31.7447 35.762C31.7476 35.8185 31.7434 35.8753 31.7324 35.9308Z" fill="#93471F"/>
<path d="M30.152 40.8508C30.1415 40.842 30.257 40.7047 30.4023 40.4544C30.4863 40.3086 30.5588 40.1565 30.6193 39.9994C30.6912 39.8063 30.7471 39.6076 30.7864 39.4053C30.8213 39.203 30.8386 38.998 30.838 38.7928C30.8366 38.6245 30.822 38.4565 30.7943 38.2905C30.7462 38.0061 30.6849 37.8364 30.698 37.832C30.721 37.8678 30.7387 37.9067 30.7505 37.9475C30.7909 38.0558 30.8231 38.1669 30.8468 38.28C30.8825 38.4482 30.903 38.6192 30.908 38.791C30.9125 39.0018 30.8966 39.2124 30.8608 39.4202C30.8223 39.6272 30.7637 39.83 30.6858 40.0256C30.6207 40.1853 30.5413 40.3387 30.4486 40.4842C30.3876 40.5824 30.3185 40.6755 30.2422 40.7624C30.1888 40.8219 30.1564 40.8543 30.152 40.8508Z" fill="#93471F"/>
<path d="M33.4313 39.9326L35.0518 40.4944C35.0518 40.4944 36.5988 39.6937 37.6654 40.4944C38.732 41.295 39.6587 43.4037 39.3664 44.2569C39.3664 44.2569 38.6306 45.166 38.0697 45.299C36.8373 45.2366 35.6153 45.0403 34.4253 44.7136C33.5529 44.4218 32.7227 44.0164 31.9561 43.5079L33.4313 39.9326Z" fill="#F0AD8E"/>
<path d="M33.6315 42.3237C33.6185 42.277 33.6126 42.2287 33.614 42.1802C33.6079 42.0709 33.5991 41.9405 33.5904 41.7891C33.5729 41.4584 33.551 41.0016 33.544 40.495C33.5347 40.063 33.5473 39.6307 33.5816 39.2C33.5965 39.0346 33.614 38.9016 33.6297 38.8089C33.6334 38.7604 33.6449 38.7128 33.6639 38.668C33.6752 38.668 33.6507 38.8727 33.6341 39.2026C33.6175 39.5325 33.6122 39.9901 33.6192 40.4932C33.6262 40.9963 33.6367 41.4356 33.6429 41.7873C33.6429 41.9527 33.6429 42.0875 33.6429 42.1793C33.6472 42.2278 33.6434 42.2766 33.6315 42.3237Z" fill="#93471F"/>
<path d="M38.9734 40.4311C38.8054 40.2567 38.6252 40.0945 38.4344 39.9454C37.9661 39.5942 37.4043 39.3896 36.8199 39.3574C36.2354 39.3252 35.6545 39.4667 35.1505 39.7643C34.9442 39.8909 34.7476 40.0327 34.5625 40.1887C34.6012 40.1354 34.6458 40.0866 34.6955 40.0434C34.8263 39.9208 34.9694 39.812 35.1225 39.7188C35.6316 39.402 36.2259 39.2497 36.8247 39.2828C37.4234 39.3158 37.9974 39.5325 38.4685 39.9034C38.6105 40.0133 38.741 40.1373 38.8579 40.2736C38.9023 40.3215 38.9411 40.3743 38.9734 40.4311Z" fill="#263238"/>
<path d="M38.7658 39.0792C38.5569 38.9281 38.3304 38.8033 38.0912 38.7073C37.5034 38.4988 36.8651 38.4798 36.2659 38.653C35.9366 38.7453 35.6196 38.877 35.3218 39.045C35.0794 39.1843 34.8506 39.346 34.6384 39.528C34.4573 39.6829 34.3182 39.8194 34.2228 39.913C34.2389 39.9342 34.2464 39.9608 34.2436 39.9872C34.2409 40.0137 34.2283 40.0382 34.2082 40.0557C34.1882 40.0732 34.1622 40.0824 34.1356 40.0815C34.109 40.0806 34.0837 40.0696 34.0649 40.0508C34.0461 40.032 34.0351 40.0067 34.0342 39.9801C34.0333 39.9535 34.0426 39.9276 34.0601 39.9075C34.0776 39.8875 34.102 39.8748 34.1285 39.8721C34.155 39.8694 34.1815 39.8768 34.2027 39.8929C34.3291 39.7504 34.4635 39.6152 34.6052 39.4878C35.0735 39.0598 35.6362 38.7483 36.2476 38.5787C36.861 38.4011 37.5157 38.4284 38.1122 38.6565C38.29 38.7279 38.4577 38.8224 38.6109 38.9374C38.6525 38.9683 38.692 39.0019 38.7291 39.038C38.7428 39.0504 38.7551 39.0642 38.7658 39.0792Z" fill="#263238"/>
<path d="M38.7791 37.9096C38.7747 37.9245 38.4921 37.8379 38.0213 37.7749C37.7458 37.7381 37.468 37.7206 37.1901 37.7224C36.5086 37.7251 35.8325 37.8434 35.1907 38.0724C34.929 38.1652 34.6744 38.2766 34.4286 38.4057C34.0086 38.6271 33.7714 38.8039 33.7627 38.7925C33.8126 38.7439 33.8672 38.7003 33.9254 38.6621C33.9898 38.6128 34.0567 38.567 34.1258 38.5247C34.2063 38.4749 34.3008 38.4136 34.4023 38.3594C34.6478 38.2237 34.9032 38.1067 35.1662 38.0094C35.49 37.8928 35.8227 37.8026 36.1611 37.7398C36.5004 37.682 36.8441 37.6527 37.1883 37.6523C37.4691 37.6539 37.7494 37.6774 38.0266 37.7224C38.1456 37.7372 38.2506 37.7644 38.3442 37.7836C38.4378 37.8029 38.5192 37.8247 38.5796 37.844C38.648 37.8597 38.7147 37.8816 38.7791 37.9096Z" fill="#263238"/>
<path d="M26.3638 23.5781C26.4244 23.7146 26.4626 23.86 26.4767 24.0086C26.5189 24.4285 26.4983 24.8523 26.4154 25.266C26.3633 25.5616 26.2935 25.8538 26.2063 26.141C26.0906 26.4762 25.9481 26.8016 25.7802 27.114C25.4302 27.7869 24.9927 28.5201 24.4834 29.3015L24.423 29.3934V29.284C24.423 28.7678 24.423 28.2244 24.423 27.6591L24.4799 27.6871L23.1132 28.7905L23.1246 28.773C22.7953 29.8409 22.5915 30.9436 22.5173 32.0586C22.4263 33.7349 22.4459 35.4153 22.5759 37.089C22.6477 38.636 22.6949 40.0308 22.7431 41.2015C22.7912 42.3723 22.8306 43.3181 22.8673 43.9717C22.8866 44.2955 22.9005 44.5484 22.911 44.7243C22.9172 44.8118 22.9216 44.8721 22.9242 44.9203C22.9255 44.9427 22.9255 44.9652 22.9242 44.9876C22.9242 44.9876 22.9198 44.9657 22.9137 44.922C22.9076 44.8782 22.9023 44.8091 22.8936 44.7278C22.8778 44.5528 22.8568 44.3016 22.8349 43.9752C22.7912 43.3207 22.7396 42.3758 22.6871 41.205C22.6346 40.0343 22.5733 38.6413 22.5024 37.0925C22.3687 35.4161 22.3471 33.7327 22.4377 32.0534C22.5123 30.9325 22.7178 29.8242 23.0502 28.7511V28.7406L23.0589 28.7336L24.4274 27.6329L24.4843 27.5874V27.6609C24.4843 28.2244 24.4843 28.7678 24.4843 29.2858L24.4239 29.2683C25.4293 27.7099 26.2474 26.3545 26.3734 25.2581C26.4603 24.848 26.4868 24.4273 26.4522 24.0095C26.4401 23.9 26.4199 23.7915 26.3918 23.6849C26.3725 23.6149 26.3638 23.5781 26.3638 23.5781Z" fill="#263238"/>
<path d="M23.7366 42.457H23.6841C23.5783 42.4638 23.4792 42.5116 23.4078 42.5901C23.3365 42.6687 23.2986 42.7719 23.302 42.8779C23.3054 42.984 23.3499 43.0845 23.4261 43.1584C23.5023 43.2322 23.6043 43.2734 23.7104 43.2734C23.8165 43.2734 23.9184 43.2322 23.9946 43.1584C24.0709 43.0845 24.1154 42.984 24.1188 42.8779C24.1222 42.7719 24.0842 42.6687 24.0129 42.5901C23.9416 42.5116 23.8425 42.4638 23.7366 42.457Z" fill="white"/>
<path d="M23.7376 36.8154H23.6851C23.5792 36.8222 23.4801 36.87 23.4088 36.9485C23.3375 37.0271 23.2995 37.1303 23.3029 37.2363C23.3064 37.3424 23.3509 37.4429 23.4271 37.5168C23.5033 37.5906 23.6053 37.6318 23.7114 37.6318C23.8175 37.6318 23.9194 37.5906 23.9956 37.5168C24.0718 37.4429 24.1164 37.3424 24.1198 37.2363C24.1232 37.1303 24.0852 37.0271 24.0139 36.9485C23.9426 36.87 23.8435 36.8222 23.7376 36.8154Z" fill="white"/>
<path d="M23.6838 31.7698C23.7929 31.777 23.9003 31.7405 23.9826 31.6685C24.0648 31.5965 24.115 31.4947 24.1222 31.3856C24.1294 31.2766 24.0929 31.1691 24.0209 31.0869C23.9489 31.0047 23.8471 30.9545 23.7381 30.9473H23.6855C23.5762 30.9473 23.4714 30.9907 23.3941 31.068C23.3168 31.1453 23.2734 31.2501 23.2734 31.3594C23.2734 31.4687 23.3168 31.5735 23.3941 31.6508C23.4714 31.7281 23.5762 31.7715 23.6855 31.7715L23.6838 31.7698Z" fill="white"/>
<path d="M17.3655 16.9665C16.831 16.4173 16.3597 15.8101 15.9602 15.1562C15.5597 14.496 15.3933 13.7202 15.4877 12.9538C15.5595 12.5119 15.7502 12.0919 15.7773 11.6413C15.8185 11.0288 15.5603 10.3839 15.7773 9.80904C16.1186 8.90866 17.3304 8.76954 18.0646 8.14654C18.6368 7.66179 18.9151 6.87604 19.546 6.46742C20.1305 6.15812 20.8062 6.06723 21.4517 6.21104C22.0913 6.35621 22.7479 6.41275 23.403 6.37904C23.86 6.283 24.3116 6.16237 24.7557 6.01767C25.2049 5.87288 25.6924 5.90576 26.1181 6.10954C26.3239 6.22003 26.4778 6.40729 26.5463 6.63062C26.6147 6.85395 26.5923 7.09529 26.4838 7.30217C26.6778 7.23708 26.8831 7.2127 27.0869 7.23054C27.2907 7.24839 27.4886 7.30808 27.6683 7.40589C27.8479 7.50369 28.0055 7.63751 28.1311 7.79897C28.2567 7.96044 28.3477 8.14608 28.3983 8.34429C28.4742 8.7529 28.4354 9.17453 28.2864 9.56247C28.1373 9.95042 27.8838 10.2896 27.5539 10.5423C26.8861 11.0389 26.1035 11.3585 25.279 11.4715C22.9626 11.9764 20.5411 11.5992 18.4881 10.4137" fill="#283237"/>
<path d="M25.4769 24.712C25.364 23.837 25.2722 23.1125 25.2661 23.0215C26.074 22.8377 26.792 22.3766 27.2952 21.7183C27.7985 21.06 28.0551 20.2462 28.0205 19.4183C27.9427 17.9947 27.5437 15.0713 27.1526 12.4323C26.9488 11.0655 26.2381 9.82537 25.1617 8.95865C24.0854 8.09193 22.7223 7.66205 21.3434 7.75453L21.0599 7.77378C18.007 8.15703 16.628 10.964 17.0962 14.0055L18.7429 24.2019C18.7429 24.2019 19.4429 26.4576 20.9497 26.8479L22.8467 29.5604L23.1599 28.394L24.5739 27.1629C24.8458 26.8446 25.0806 26.4965 25.2739 26.1252C25.4923 25.6884 25.5635 25.1926 25.4769 24.712Z" fill="#F0AD8E"/>
<path d="M27.0221 15.2669C27.0317 15.3924 26.9918 15.5167 26.9111 15.6133C26.8304 15.7099 26.7151 15.7711 26.5899 15.784C26.529 15.7928 26.467 15.7894 26.4074 15.774C26.3479 15.7585 26.292 15.7314 26.2431 15.694C26.1942 15.6567 26.1532 15.61 26.1226 15.5566C26.092 15.5032 26.0724 15.4443 26.0649 15.3832C26.0553 15.2579 26.095 15.1337 26.1756 15.0371C26.2561 14.9405 26.3712 14.8792 26.4962 14.8661C26.5572 14.8573 26.6193 14.8607 26.6789 14.8762C26.7385 14.8917 26.7944 14.919 26.8433 14.9564C26.8922 14.9938 26.9332 15.0406 26.9637 15.0941C26.9943 15.1476 27.0138 15.2066 27.0212 15.2677" fill="#263238"/>
<path d="M27.4927 14.0701C27.4375 14.1366 27.0552 13.8951 26.5354 13.9275C26.0157 13.9598 25.6552 14.2477 25.5948 14.19C25.565 14.1637 25.6184 14.0465 25.7759 13.9143C25.9897 13.744 26.2511 13.644 26.524 13.6282C26.7934 13.609 27.0619 13.6761 27.2905 13.8198C27.4585 13.9318 27.5198 14.0412 27.4918 14.0718" fill="#263238"/>
<path d="M22.1256 15.6165C22.1352 15.742 22.0954 15.8663 22.0146 15.9629C21.9339 16.0595 21.8186 16.1207 21.6934 16.1336C21.6325 16.1425 21.5705 16.1391 21.5109 16.1236C21.4514 16.1082 21.3955 16.081 21.3466 16.0436C21.2977 16.0063 21.2568 15.9596 21.2261 15.9062C21.1955 15.8529 21.1759 15.7939 21.1684 15.7329C21.1588 15.6075 21.1985 15.4833 21.2791 15.3867C21.3597 15.2901 21.4747 15.2288 21.5998 15.2157C21.6607 15.2069 21.7228 15.2103 21.7824 15.2258C21.842 15.2413 21.8979 15.2686 21.9468 15.306C21.9957 15.3434 22.0367 15.3902 22.0672 15.4437C22.0978 15.4972 22.1174 15.5562 22.1248 15.6174" fill="#263238"/>
<path d="M22.4047 14.5076C22.3487 14.5741 21.9672 14.3326 21.4474 14.3649C20.9277 14.3973 20.5663 14.6861 20.5059 14.6274C20.4762 14.6012 20.5295 14.4839 20.687 14.3527C20.9008 14.182 21.1621 14.0817 21.4352 14.0657C21.7045 14.0466 21.973 14.1137 22.2017 14.2573C22.3688 14.3693 22.4309 14.4787 22.4029 14.5093" fill="#263238"/>
<path d="M24.5435 18.2255C24.811 18.1216 25.0906 18.0517 25.3756 18.0173C25.5068 17.9945 25.6302 17.9604 25.6468 17.8685C25.6488 17.7312 25.6088 17.5966 25.5322 17.4827L25.0737 16.5009C24.6533 15.6722 24.3001 14.811 24.0176 13.9258C24.5035 14.7196 24.9249 15.5512 25.2776 16.4125L25.7203 17.4013C25.8141 17.5553 25.8506 17.7375 25.8236 17.9158C25.8075 17.9638 25.7808 18.0075 25.7453 18.0436C25.7098 18.0797 25.6666 18.1072 25.6188 18.124C25.5467 18.1489 25.4717 18.1645 25.3957 18.1704C25.115 18.226 24.8283 18.2457 24.5426 18.229" fill="#263238"/>
<path d="M22.4037 12.4676C22.3617 12.6119 21.8402 12.5796 21.2365 12.6942C20.6327 12.8088 20.1524 13.0066 20.0631 12.8858C20.0229 12.8281 20.0999 12.6889 20.2889 12.5358C20.5423 12.3509 20.8345 12.2261 21.1433 12.1709C21.4521 12.1157 21.7695 12.1316 22.0712 12.2173C22.3005 12.2926 22.4212 12.3923 22.4029 12.4641" fill="#263238"/>
<path d="M27.2014 12.5827C27.1139 12.707 26.7526 12.6081 26.3264 12.6309C25.8959 12.6387 25.5389 12.763 25.4471 12.6457C25.4068 12.5889 25.4558 12.4707 25.6072 12.3447C25.8118 12.197 26.0556 12.1134 26.3078 12.1043C26.56 12.0953 26.8092 12.1613 27.0238 12.294C27.1839 12.4051 27.2417 12.5224 27.2049 12.5827" fill="#263238"/>
<path d="M24.8817 19.3925L23.7092 18.8457C23.6445 18.808 23.5705 18.7895 23.4957 18.7923C23.4134 18.8113 23.341 18.8603 23.2927 18.9296C23.1557 19.0946 23.0704 19.2963 23.0473 19.5095C23.0243 19.7227 23.0646 19.938 23.1632 20.1284C23.2703 20.314 23.4391 20.4562 23.6402 20.5302C23.8414 20.6042 24.0621 20.6054 24.2639 20.5335C24.4618 20.4254 24.6267 20.2657 24.7411 20.0715C24.8556 19.8772 24.9153 19.6556 24.9141 19.4301L24.8817 19.3925Z" fill="#B56050"/>
<path d="M24.2956 20.614C24.2956 20.6236 24.2413 20.6578 24.1206 20.6823C23.9518 20.7126 23.7781 20.6996 23.6157 20.6446C23.368 20.5615 23.1602 20.3889 23.033 20.1608C22.9531 20.0216 22.9053 19.8664 22.8929 19.7064C22.8805 19.5464 22.9038 19.3857 22.9612 19.2359C23.0207 19.0808 23.1136 18.9407 23.2333 18.8255C23.291 18.7706 23.3547 18.7225 23.4232 18.682C23.4634 18.6568 23.5093 18.6421 23.5567 18.6392C23.6041 18.6363 23.6515 18.6453 23.6945 18.6654C23.7575 18.6963 23.8186 18.731 23.8773 18.7695L24.0375 18.8675L24.3227 19.0425C24.5206 19.1476 24.7039 19.2782 24.8678 19.431C24.654 19.364 24.4498 19.2693 24.2606 19.1493L23.964 18.9891L23.7995 18.9016C23.7456 18.8696 23.6901 18.8404 23.6332 18.8141C23.6127 18.8041 23.5899 18.7999 23.5672 18.8021C23.5445 18.8042 23.5228 18.8127 23.5046 18.8264C23.449 18.8616 23.3974 18.9027 23.3506 18.9489C23.2506 19.0481 23.1727 19.1674 23.1222 19.2989C23.0735 19.426 23.0527 19.5622 23.0613 19.6981C23.0699 19.834 23.1077 19.9664 23.1721 20.0864C23.2767 20.2869 23.4482 20.4444 23.6568 20.5318C23.8007 20.5914 23.9552 20.6212 24.111 20.6193C24.223 20.6193 24.286 20.6053 24.286 20.6193" fill="#263238"/>
<path d="M23.9306 15.3227C23.9153 15.1266 23.886 14.9319 23.8431 14.7399C23.7061 14.2197 23.3979 13.7607 22.9681 13.4371C22.6525 13.1984 22.282 13.0427 21.8907 12.9845C21.4993 12.9262 21.0995 12.9672 20.7281 13.1037C20.2897 13.2645 19.9086 13.5513 19.6326 13.928C19.3347 14.3321 19.1739 14.821 19.1739 15.3231C19.1739 15.8252 19.3347 16.3142 19.6326 16.7183C19.9088 17.0952 20.2903 17.3819 20.729 17.5426C21.0404 17.6553 21.3719 17.7018 21.7024 17.6793C22.0328 17.6567 22.3549 17.5654 22.6481 17.4114C22.9413 17.2573 23.1991 17.0439 23.4052 16.7846C23.6113 16.5253 23.761 16.2259 23.8449 15.9054C23.8878 15.7135 23.917 15.5188 23.9324 15.3227C23.9344 15.3357 23.9344 15.349 23.9324 15.3621C23.9324 15.3927 23.9324 15.4312 23.9324 15.4767C23.9327 15.5391 23.9277 15.6015 23.9175 15.6631C23.9086 15.7478 23.8934 15.8318 23.872 15.9142C23.8184 16.1426 23.7299 16.3613 23.6095 16.5626C23.435 16.8606 23.199 17.1179 22.9171 17.3174C22.6353 17.5169 22.3141 17.6539 21.975 17.7193C21.546 17.8007 21.1031 17.7657 20.6922 17.6178C20.2372 17.4536 19.8413 17.1579 19.5547 16.7682C19.2458 16.3502 19.0791 15.8442 19.0791 15.3244C19.0791 14.8047 19.2458 14.2987 19.5547 13.8807C19.8416 13.4915 20.2374 13.1961 20.6922 13.0319C21.1028 12.8842 21.5454 12.8492 21.9741 12.9305C22.3134 12.9952 22.635 13.1316 22.9174 13.3306C23.1997 13.5297 23.4363 13.7867 23.6112 14.0846C23.7317 14.2858 23.8203 14.5046 23.8737 14.7329C23.8952 14.8154 23.9104 14.8993 23.9192 14.9841C23.9295 15.0457 23.9344 15.108 23.9341 15.1704C23.9341 15.2159 23.9341 15.2579 23.9341 15.2851C23.9361 15.2981 23.9361 15.3114 23.9341 15.3244" fill="#263238"/>
<path d="M29.6653 15.0997C29.6493 14.9087 29.6201 14.7189 29.5778 14.5319C29.4437 14.025 29.1429 13.5781 28.7238 13.2631C28.4163 13.0307 28.0553 12.8792 27.6741 12.8225C27.2928 12.7658 26.9034 12.8057 26.5415 12.9385C26.1144 13.0948 25.7429 13.374 25.474 13.7409C25.184 14.1344 25.0276 14.6105 25.0276 15.0993C25.0276 15.5882 25.184 16.0642 25.474 16.4578C25.743 16.8248 26.1143 17.1043 26.5415 17.261C26.8449 17.3709 27.1678 17.4164 27.4897 17.3945C27.8116 17.3727 28.1254 17.284 28.4111 17.134C28.6968 16.9841 28.9481 16.7763 29.149 16.5238C29.3499 16.2713 29.4959 15.9797 29.5778 15.6676C29.6201 15.4806 29.6493 15.2908 29.6653 15.0997C29.6692 15.1495 29.6692 15.1996 29.6653 15.2494C29.6657 15.31 29.6611 15.3706 29.6513 15.4305C29.6429 15.5132 29.6283 15.5951 29.6075 15.6755C29.501 16.115 29.2703 16.5146 28.9429 16.8266C28.6156 17.1386 28.2054 17.3498 27.7613 17.4351C27.3432 17.5146 26.9114 17.4804 26.5109 17.3362C26.0676 17.1762 25.6818 16.8881 25.4023 16.5085C25.1004 16.1007 24.9375 15.6067 24.9375 15.0993C24.9375 14.5919 25.1004 14.0979 25.4023 13.6901C25.6817 13.3105 26.0676 13.0224 26.5109 12.8624C26.9114 12.7182 27.3432 12.6841 27.7613 12.7635C28.2054 12.8488 28.6156 13.0601 28.9429 13.3721C29.2703 13.6841 29.501 14.0836 29.6075 14.5231C29.6283 14.6036 29.6429 14.6855 29.6513 14.7681C29.6611 14.828 29.6657 14.8886 29.6653 14.9492C29.6692 14.999 29.6692 15.05 29.6653 15.0997Z" fill="#263238"/>
<path d="M24.9857 14.5694C24.9761 14.579 24.921 14.5326 24.8186 14.4819C24.6868 14.4194 24.5426 14.3877 24.3968 14.3891C24.251 14.3923 24.1079 14.4291 23.9786 14.4967C23.8788 14.5492 23.8255 14.5982 23.8158 14.5842C23.8062 14.5702 23.8465 14.5107 23.9471 14.4399C24.0799 14.3501 24.2359 14.3008 24.3963 14.298C24.5566 14.2952 24.7142 14.339 24.8501 14.4241C24.9525 14.4906 24.9945 14.5562 24.9866 14.5632" fill="#263238"/>
<path d="M19.2687 14.9834C18.9372 15.2852 18.5864 15.5652 18.2187 15.8216C17.8682 16.1012 17.4999 16.3579 17.1162 16.5899C17.4477 16.288 17.7984 16.008 18.1662 15.7517C18.5167 15.472 18.885 15.2154 19.2687 14.9834Z" fill="#263238"/>
<path d="M25.2684 22.9794C23.9099 23.0965 22.5473 22.8062 21.3545 22.1455C21.7624 22.7974 22.3665 23.3032 23.08 23.5901C23.7935 23.8771 24.5796 23.9304 25.3252 23.7424L25.2684 22.9794Z" fill="#93471F"/>
<path d="M17.4712 16.1817C17.4196 16.1624 15.4079 15.718 15.6066 17.7287C15.8052 19.7395 17.9831 19.0841 17.9822 19.0254C17.9813 18.9668 17.4712 16.1817 17.4712 16.1817Z" fill="#F0AD8E"/>
<path d="M17.0954 18.3566C17.0866 18.3504 17.063 18.3846 17.0079 18.4178C16.9277 18.4619 16.8335 18.4729 16.7454 18.4484C16.6079 18.3784 16.4914 18.2733 16.4077 18.1438C16.3239 18.0143 16.2759 17.8649 16.2685 17.7108C16.2465 17.539 16.2629 17.3645 16.3166 17.1998C16.3292 17.1352 16.3573 17.0746 16.3987 17.0233C16.44 16.9721 16.4932 16.9317 16.5537 16.9058C16.5931 16.8912 16.6363 16.8909 16.676 16.9048C16.7156 16.9187 16.7491 16.946 16.7708 16.9819C16.8031 17.0362 16.7944 17.0773 16.8057 17.0782C16.8171 17.0791 16.8451 17.0397 16.8215 16.9583C16.8052 16.9096 16.7728 16.868 16.7296 16.8402C16.7003 16.822 16.6676 16.8098 16.6335 16.8042C16.5995 16.7986 16.5646 16.7999 16.531 16.8078C16.4499 16.8326 16.3765 16.8778 16.3178 16.9391C16.2591 17.0004 16.2171 17.0757 16.1959 17.1578C16.1274 17.3403 16.1048 17.5368 16.1303 17.7301C16.1377 17.9099 16.1984 18.0835 16.3047 18.2289C16.4109 18.3742 16.5579 18.4847 16.727 18.5464C16.7827 18.5568 16.84 18.5543 16.8946 18.5392C16.9492 18.524 16.9996 18.4966 17.042 18.4589C17.0963 18.4047 17.1024 18.3592 17.0954 18.3566Z" fill="#894B29"/>
<path d="M26.9964 9.68934C26.859 10.49 25.2359 11.2215 23.891 11.1838C22.6511 11.1471 22.0378 10.5328 21.1365 10.0953C20.9395 9.96765 20.7156 9.88757 20.4823 9.86145C20.249 9.83533 20.0129 9.86388 19.7925 9.94484C19.166 10.0472 18.8423 10.7848 18.4914 11.3133C19.1599 12.7728 18.8895 14.4686 18.6069 16.0497C18.5949 16.228 18.5234 16.3972 18.4039 16.5301C18.2754 16.6086 18.1234 16.6392 17.9745 16.6167C17.8257 16.5941 17.6896 16.5198 17.5901 16.4067C17.2589 16.0521 17.0387 15.6083 16.9566 15.1301C16.6747 14.0646 16.6072 12.9537 16.758 11.862C16.9126 10.7665 17.3854 9.7406 18.1178 8.91146C19.073 7.90281 20.383 7.30508 21.7709 7.24459C23.1538 7.19425 24.5173 7.5816 25.6673 8.35146C26.2148 8.68047 26.6718 9.14054 26.9973 9.69022" fill="#283237"/>
<g opacity="0.3">
<path d="M17.693 24.248C17.5748 25.2386 17.7094 26.243 18.0842 27.1674C18.4591 28.0919 19.062 28.9063 19.8367 29.5348C19.8919 29.5903 19.9598 29.6316 20.0345 29.6551C20.1092 29.6785 20.1885 29.6835 20.2655 29.6695C20.3644 29.6215 20.4432 29.54 20.4877 29.4394C20.934 28.6682 21.102 27.7673 20.9637 26.8871C20.7117 27.5512 20.4956 28.1996 20.241 28.8996C18.8524 28.0561 17.987 26.2649 17.693 24.248Z" fill="black"/>
</g>
<path opacity="0.3" d="M23.0859 28.7642L24.2549 28.3372L24.4483 30.3147C24.4483 30.3147 25.7101 28.0152 26.2324 26.9661C26.5474 26.0333 26.6341 25.0386 26.4853 24.0654C26.5175 25.3708 26.1409 26.6535 25.4082 27.7343L24.4536 29.2857V27.6608L23.0859 28.7642Z" fill="black"/>
<g opacity="0.3">
<path d="M9.48772 38.8131C8.95406 38.5863 8.36777 38.5126 7.7946 38.6004C7.18391 38.651 6.59968 38.872 6.10847 39.2383C5.86592 39.4238 5.67217 39.6656 5.54396 39.9428C5.41575 40.2199 5.35693 40.5241 5.37259 40.8291L5.43122 40.8378C5.57823 40.3223 5.86962 39.8596 6.27101 39.5042C6.6724 39.1489 7.16705 38.9157 7.6966 38.8323C8.21668 38.7985 8.73765 38.8833 9.22014 39.0803C9.70264 39.2774 10.134 39.5816 10.4817 39.9698C10.4351 39.7056 10.3182 39.4587 10.1433 39.2552C9.96838 39.0517 9.74195 38.899 9.48772 38.8131Z" fill="black"/>
</g>
<g opacity="0.3">
<path d="M39.0504 39.942C38.6446 39.5257 38.1146 39.2524 37.5402 39.1632C37.0394 39.0799 36.5264 39.1099 36.0388 39.2511C35.5512 39.3922 35.1015 39.6409 34.7227 39.9787L34.9449 39.7976C35.5105 39.4562 36.1603 39.2798 36.8209 39.2883C37.4841 39.3006 38.1201 39.5545 38.6094 40.0023C39.0207 40.4463 39.3432 40.9649 39.5597 41.5301C39.6007 41.2441 39.5761 40.9525 39.4879 40.6774C39.3997 40.4023 39.2501 40.1508 39.0504 39.942Z" fill="black"/>
</g>
<path d="M31.5146 30.759C31.5265 30.7042 31.5441 30.6509 31.5671 30.5998L31.7343 30.1736C31.876 29.8149 32.0694 29.3188 32.2759 28.7684C32.4824 28.218 32.6583 27.7184 32.7851 27.35C32.8455 27.1803 32.8963 27.0368 32.9374 26.9195C32.9532 26.8657 32.9749 26.8137 33.0022 26.7646C32.9957 26.8203 32.9834 26.8752 32.9654 26.9283C32.9374 27.0324 32.8937 27.1829 32.8368 27.3658C32.723 27.735 32.5533 28.2408 32.3476 28.7929C32.142 29.345 31.939 29.8376 31.7859 30.1929C31.708 30.3679 31.6441 30.5123 31.5969 30.6103C31.5752 30.6628 31.5476 30.7127 31.5146 30.759Z" fill="#263238"/>
<path d="M13.0622 30.9028C13.0421 30.9071 12.882 30.2106 12.707 29.347C12.532 28.4834 12.4051 27.7808 12.4261 27.7764C12.4471 27.772 12.6064 28.4685 12.7814 29.3321C12.9564 30.1957 13.0832 30.8984 13.0622 30.9028Z" fill="#263238"/>
<path d="M12.7865 39.6094C12.8337 39.633 12.251 35.0489 12.251 35.0489C12.3536 33.8232 12.5454 32.6067 12.825 31.4089L12.8311 30.1839C12.8311 30.1839 13.4007 29.8383 13.553 30.3965C13.553 30.3965 14.0579 29.959 14.1454 31.0012C14.2329 32.0433 14.2521 33.1099 14.2521 33.1099L15.3747 35.9143L15.5594 36.0079C15.6415 35.1605 15.7692 34.3181 15.9417 33.4844C16.0826 33.1607 16.1789 32.3732 16.71 32.4922C17.2411 32.6112 17.2866 33.0513 17.1912 33.7679C17.0753 34.4029 17.0185 35.0474 17.0215 35.6929C17.1535 36.4501 17.217 37.2177 17.2114 37.9863C17.1007 38.8166 16.7634 39.6004 16.2366 40.2516C15.6863 41.0396 15.0717 41.7806 14.3991 42.4672C14.2267 42.5967 12.7865 39.6094 12.7865 39.6094Z" fill="#F0AD8E"/>
<path d="M13.355 35.8792C13.3476 35.8141 13.3476 35.7484 13.355 35.6832C13.3655 35.5424 13.3769 35.3639 13.3918 35.1504C13.425 34.7015 13.4793 34.0802 13.5414 33.3951C13.5738 33.0538 13.6044 32.7275 13.6289 32.4326C13.6456 32.2952 13.6456 32.1562 13.6289 32.0187C13.6152 31.9015 13.5661 31.7913 13.488 31.7029C13.4296 31.6396 13.3587 31.5891 13.2798 31.5546C13.2009 31.5201 13.1156 31.5024 13.0295 31.5025C12.965 31.5043 12.9008 31.5126 12.8379 31.527C12.8379 31.527 12.8528 31.5165 12.8834 31.5034C12.9301 31.4862 12.979 31.4759 13.0286 31.4727C13.1208 31.4675 13.2131 31.4821 13.2992 31.5156C13.3852 31.5491 13.463 31.6007 13.5274 31.667C13.6156 31.7615 13.6725 31.881 13.6901 32.0091C13.7078 32.1521 13.7078 32.2967 13.6901 32.4396C13.6639 32.738 13.6341 33.0635 13.6026 33.4021C13.5396 34.0872 13.4784 34.7058 13.4277 35.1521C13.4023 35.3647 13.3821 35.5432 13.3664 35.6824C13.3688 35.7482 13.365 35.8141 13.355 35.8792Z" fill="#93471F"/>
<path d="M13.9591 34.0043C13.8775 34.1156 13.8107 34.2371 13.7604 34.3656C13.6712 34.6899 13.6086 35.0208 13.5732 35.3553C13.5128 35.7473 13.4533 36.1017 13.4078 36.3563C13.391 36.4957 13.3617 36.6333 13.3203 36.7675C13.3201 36.6266 13.333 36.486 13.3588 36.3475C13.3912 36.0903 13.4463 35.735 13.5023 35.3421C13.5365 35.0026 13.6078 34.6678 13.7149 34.3438C13.7542 34.2462 13.8092 34.1558 13.8777 34.076C13.9206 34.0226 13.9564 34.0008 13.9591 34.0043Z" fill="#93471F"/>
<path d="M13.5459 30.333C13.566 30.3792 13.5793 30.4282 13.5853 30.4782C13.6054 30.5719 13.6308 30.7084 13.6588 30.8781C13.7148 31.2159 13.776 31.6857 13.8154 32.2081C13.8548 32.7305 13.8627 33.2047 13.8565 33.5469C13.8565 33.7219 13.8495 33.8575 13.8417 33.952C13.843 34.0019 13.8371 34.0517 13.8242 34.0999C13.8064 33.9161 13.7991 33.7315 13.8023 33.5469C13.7935 33.2047 13.7778 32.7331 13.7393 32.2134C13.7008 31.6936 13.6518 31.2237 13.6063 30.8842C13.5762 30.7017 13.556 30.5177 13.5459 30.333Z" fill="#93471F"/>
<path d="M16.7855 34.6296C16.7298 34.6651 16.6663 34.6866 16.6005 34.6923C16.5346 34.6979 16.4684 34.6875 16.4074 34.662C16.1922 34.5972 16.0925 34.4318 16.1117 34.4248C16.2128 34.4886 16.3191 34.5439 16.4293 34.5902C16.5468 34.6129 16.6659 34.626 16.7855 34.6296Z" fill="#93471F"/>
<path d="M12.8506 39.0391L9.88439 40.286H8.11863C7.62431 40.4484 7.1798 40.7347 6.82751 41.1176C6.47522 41.5005 6.22687 41.9673 6.10613 42.4735C5.83663 44.1123 5.799 44.9558 6.56725 45.1579C7.90032 45.3896 9.2668 45.3446 10.5818 45.0258C11.9651 44.2819 13.2699 43.4004 14.4764 42.3947L14.7485 40.7497L12.8506 39.0391Z" fill="#F0AD8E"/>
<path d="M13.5453 40.8516C13.5409 40.8516 13.5111 40.8279 13.4578 40.7737C13.3866 40.6978 13.3219 40.6162 13.2644 40.5295C13.0794 40.2398 12.9398 39.9235 12.8505 39.5915C12.7586 39.2619 12.6974 38.9245 12.6677 38.5835C12.6481 38.4429 12.6442 38.3006 12.6563 38.1592C12.6881 38.2965 12.7098 38.436 12.721 38.5765C12.7663 38.912 12.8338 39.244 12.9231 39.5705C13.0116 39.8962 13.1416 40.2091 13.3099 40.5016C13.4473 40.7212 13.5575 40.8411 13.5453 40.8516Z" fill="#93471F"/>
<path d="M14.8369 41.3691C14.9154 41.1634 14.9717 40.9499 15.0049 40.7322C15.0698 40.2035 14.927 39.6703 14.6067 39.2447C14.4265 38.9918 14.2235 38.7721 14.0538 38.5595C13.8977 38.3735 13.7633 38.1704 13.653 37.954C13.5795 37.8066 13.529 37.6487 13.5034 37.4859C13.4914 37.4265 13.4899 37.3655 13.499 37.3057C13.5322 37.5232 13.6004 37.7339 13.7011 37.9295C13.8158 38.1384 13.9522 38.3346 14.108 38.5149C14.283 38.7232 14.486 38.9419 14.6698 39.2C14.8491 39.4412 14.9752 39.7177 15.0399 40.0112C15.0894 40.2511 15.0959 40.4978 15.0591 40.74C15.0345 40.9025 14.9886 41.0611 14.9226 41.2117C14.9055 41.2525 14.8854 41.292 14.8623 41.3298C14.8465 41.3578 14.8377 41.3709 14.8369 41.3691Z" fill="#93471F"/>
<path opacity="0.801" d="M2.06445 49.3359H42.7975V51.0474C42.7975 51.2795 42.7053 51.5021 42.5412 51.6662C42.3771 51.8303 42.1545 51.9224 41.9225 51.9224H2.93945C2.70739 51.9224 2.48483 51.8303 2.32073 51.6662C2.15664 51.5021 2.06445 51.2795 2.06445 51.0474V49.3359Z" fill="#1F232B"/>
<path d="M3.49121 50.6621H41.2396" stroke="white" stroke-linecap="round"/>
<path d="M3.49121 50.6621H16.2592" stroke="#C1483B" stroke-width="2" stroke-linecap="round"/>
<path d="M17.1508 51.7098C17.7297 51.7098 18.199 51.2405 18.199 50.6615C18.199 50.0826 17.7297 49.6133 17.1508 49.6133C16.5719 49.6133 16.1025 50.0826 16.1025 50.6615C16.1025 51.2405 16.5719 51.7098 17.1508 51.7098Z" fill="#B35041"/>
<path d="M33.3291 12.6923L34.6766 10.321C33.846 8.9719 33.5501 7.3609 33.8469 5.80467C34.1438 4.24844 35.012 2.85951 36.2809 1.91089C37.5498 0.962266 39.1276 0.522549 40.7043 0.678164C42.2809 0.833779 43.7423 1.57347 44.8013 2.75186C45.8602 3.93024 46.4402 5.46209 46.4271 7.04633C46.4139 8.63058 45.8088 10.1526 44.7305 11.3133C43.6522 12.474 42.1787 13.1895 40.5997 13.319C39.0207 13.4485 37.4504 12.9827 36.1973 12.0133L33.3291 12.6923Z" fill="#FAFAFA"/>
<path d="M33.3281 12.6936L36.199 12.0374L36.2279 12.0313L36.2095 12.0068L36.1824 12.0339C36.5847 12.3464 37.0222 12.6107 37.4861 12.8214C38.039 13.0689 38.6245 13.236 39.2247 13.3175C39.5571 13.364 39.893 13.381 40.2284 13.3683C40.4034 13.3586 40.5784 13.3543 40.7534 13.3394L41.2889 13.258C42.8839 12.9461 44.3004 12.0389 45.2509 10.7205C45.778 9.98925 46.1431 9.15401 46.3219 8.2705C46.5046 7.33637 46.4789 6.37343 46.2466 5.45037C46.0071 4.48618 45.5413 3.59294 44.8877 2.84463L44.6253 2.56025C44.5378 2.464 44.4389 2.38525 44.347 2.29775C44.2551 2.21025 44.1633 2.12275 44.0591 2.04662L43.7581 1.81213C43.6584 1.73502 43.5531 1.66541 43.4431 1.60388L43.122 1.40788L42.7851 1.24425C42.675 1.18725 42.5616 1.13671 42.4456 1.09288C41.5432 0.735121 40.5718 0.585574 39.6036 0.655377C38.6883 0.717215 37.7979 0.980439 36.9961 1.42625C35.5559 2.22868 34.479 3.55369 33.9879 5.1275C33.7912 5.79655 33.6983 6.49179 33.7122 7.189C33.7295 7.79411 33.8341 8.39357 34.0229 8.96875C34.1805 9.4465 34.3937 9.90405 34.6581 10.332V10.3136C33.8085 11.8344 33.3938 12.5772 33.3281 12.6936L34.6887 10.3303L34.6949 10.3215L34.6887 10.3127C34.4285 9.88555 34.2188 9.42953 34.064 8.95388C33.8799 8.38211 33.7788 7.78687 33.7639 7.18637C33.7528 6.49564 33.8473 5.80726 34.0439 5.145C34.5335 3.58877 35.6014 2.27966 37.0276 1.4875C37.821 1.04834 38.7014 0.789336 39.6062 0.728876C40.5622 0.661555 41.5212 0.809567 42.4124 1.162C42.5272 1.20458 42.6391 1.25456 42.7475 1.31163C42.8577 1.365 42.9689 1.41837 43.0791 1.4735L43.3976 1.666C43.5062 1.72694 43.61 1.79597 43.7083 1.8725L44.0084 2.09737C44.1071 2.17491 44.2018 2.25757 44.2919 2.345C44.3794 2.4325 44.4835 2.51037 44.5675 2.6075L44.823 2.88925C45.4685 3.6282 45.9287 4.51036 46.1652 5.46262C46.3948 6.37473 46.4208 7.32622 46.2414 8.2495C46.0658 9.12255 45.7057 9.94801 45.1852 10.6706C44.2476 11.9775 42.8487 12.8795 41.2714 13.1941L40.742 13.2755C40.567 13.2904 40.392 13.2956 40.2214 13.3061C39.889 13.32 39.5561 13.3042 39.2265 13.2589C38.6309 13.1801 38.0496 13.0169 37.5001 12.7741C37.0386 12.5676 36.6026 12.3083 36.2007 12.0015L36.0826 11.914L36.1701 12.0321L36.1806 12.0015L33.3281 12.6936Z" fill="#263238"/>
<path d="M41.7832 6.73961C41.7832 6.86214 41.8195 6.98192 41.8876 7.0838C41.9557 7.18567 42.0524 7.26507 42.1656 7.31196C42.2788 7.35885 42.4034 7.37111 42.5236 7.34721C42.6437 7.3233 42.7541 7.26431 42.8408 7.17767C42.9274 7.09103 42.9864 6.98065 43.0103 6.86048C43.0342 6.74031 43.0219 6.61574 42.9751 6.50254C42.9282 6.38934 42.8488 6.2926 42.7469 6.22453C42.645 6.15645 42.5252 6.12012 42.4027 6.12012C42.2385 6.12035 42.081 6.18569 41.9649 6.30182C41.8488 6.41795 41.7834 6.57538 41.7832 6.73961Z" fill="#263238"/>
<path d="M39.3027 6.73961C39.3027 6.86214 39.3391 6.98192 39.4071 7.0838C39.4752 7.18567 39.572 7.26507 39.6852 7.31196C39.7984 7.35885 39.9229 7.37111 40.0431 7.34721C40.1633 7.3233 40.2737 7.26431 40.3603 7.17767C40.4469 7.09103 40.5059 6.98065 40.5298 6.86048C40.5537 6.74031 40.5415 6.61574 40.4946 6.50254C40.4477 6.38934 40.3683 6.2926 40.2664 6.22453C40.1645 6.15645 40.0448 6.12012 39.9222 6.12012C39.758 6.12035 39.6006 6.18569 39.4844 6.30182C39.3683 6.41795 39.303 6.57538 39.3027 6.73961Z" fill="#263238"/>
<path d="M36.835 6.42971C36.7737 6.53581 36.7453 6.65771 36.7533 6.77998C36.7613 6.90226 36.8053 7.01943 36.8799 7.11665C36.9545 7.21388 37.0562 7.2868 37.1722 7.3262C37.2883 7.36561 37.4134 7.36972 37.5317 7.33802C37.6501 7.30632 37.7564 7.24023 37.8372 7.14811C37.918 7.05599 37.9697 6.94196 37.9857 6.82048C38.0017 6.69899 37.9812 6.57549 37.927 6.4656C37.8728 6.3557 37.7873 6.26435 37.6812 6.20309C37.5389 6.12097 37.3698 6.09871 37.2112 6.14121C37.0525 6.18371 36.9172 6.28748 36.835 6.42971Z" fill="#263238"/>
</svg>
